<?xml version="1.0" standalone="no"?>
<!DOCTYPE svg PUBLIC "-//W3C//DTD SVG 20010904//EN"
 "http://www.w3.org/TR/2001/REC-SVG-20010904/DTD/svg10.dtd">
<svg version="1.0" xmlns="http://www.w3.org/2000/svg"
 width="1800.000000pt" height="1012.000000pt" viewBox="0 0 1800.000000 1012.000000"
 preserveAspectRatio="xMidYMid meet">
<metadata>
Created by potrace 1.16, written by Peter Selinger 2001-2019
</metadata>
<g transform="translate(0.000000,1012.000000) scale(0.100000,-0.100000)"
fill="#000000" stroke="none">
<path d="M1176 10098 c32 -38 46 -46 91 -51 79 -9 222 -130 244 -207 15 -50
14 -2 13 -1405 0 -522 0 -1018 0 -1102 1 -139 -1 -154 -20 -180 -12 -15 -31
-29 -43 -31 -39 -6 -193 39 -258 75 -58 32 -65 34 -99 23 -65 -22 -184 6 -236
54 -61 58 -64 59 -101 45 -29 -10 -41 -10 -76 4 -51 21 -56 21 -74 2 -12 -11
-15 -56 -16 -241 0 -134 4 -234 10 -245 8 -16 21 -19 74 -19 63 0 65 -1 96
-40 37 -46 49 -48 92 -17 71 50 188 16 243 -70 36 -58 50 -64 124 -56 67 7 52
16 170 -99 40 -38 69 -125 83 -246 13 -116 15 -107 -69 -307 -62 -149 -60
-224 10 -302 24 -26 46 -58 50 -69 9 -30 8 -115 -6 -414 -6 -140 -11 -286 -11
-325 0 -38 1 -152 2 -252 1 -161 -8 -267 -24 -293 -8 -14 42 -47 81 -55 50 -9
86 8 123 60 37 51 78 66 116 41 37 -24 41 -59 14 -103 -13 -21 -26 -40 -31
-43 -4 -3 -22 -27 -40 -52 -75 -104 -130 -123 -221 -78 -26 13 -55 20 -69 17
-85 -19 -237 -59 -257 -68 -13 -5 -76 -21 -140 -35 -64 -13 -152 -33 -196 -44
-44 -10 -107 -24 -140 -31 -92 -17 -253 -104 -293 -158 -16 -22 -19 -35 -13
-57 6 -25 12 -28 37 -25 16 1 41 9 56 17 38 20 74 1 100 -50 21 -40 21 -53 22
-923 l1 -883 -30 -6 c-16 -4 -39 -13 -50 -21 -19 -15 -19 -15 5 -9 14 3 44 9
68 13 23 3 45 10 48 14 3 5 26 9 52 9 26 0 62 4 81 10 18 5 79 12 135 15 128
8 139 11 132 38 -3 11 2 59 10 106 25 139 25 152 9 222 -12 54 -15 146 -16
451 -1 211 0 412 2 448 1 36 2 92 1 125 -1 33 -3 114 -5 180 -4 172 3 187 98
200 34 5 64 18 95 42 37 29 51 34 79 29 79 -12 129 -85 148 -214 11 -79 6
-425 -9 -492 -10 -51 -13 -366 -3 -465 2 -22 5 -137 6 -255 1 -220 -14 -409
-34 -423 -7 -4 -53 -7 -103 -6 -51 1 -98 -2 -105 -7 -7 -4 -67 -7 -132 -5 -74
1 -117 -1 -113 -7 9 -14 -40 -20 -224 -28 -102 -4 -178 -12 -199 -20 -18 -8
-65 -14 -103 -14 -112 0 -108 7 -108 -189 l0 -169 87 -6 c78 -6 1164 -3 2614
6 361 2 500 0 510 -8 9 -8 30 -9 62 -4 57 8 64 14 43 35 -13 14 -16 41 -16
162 0 111 -3 144 -12 141 -7 -3 -16 -18 -19 -34 -10 -50 -21 -74 -31 -68 -5 3
-4 12 3 20 10 12 9 18 -2 29 -18 18 -161 28 -210 15 -28 -8 -43 -7 -64 4 -40
21 -61 9 -56 -30 1 -7 -9 -9 -22 -7 -17 3 -26 -2 -34 -19 l-12 -23 0 26 c-1
15 -8 33 -18 40 -15 13 -16 11 -9 -14 6 -27 -2 -35 -19 -18 -6 4 -22 11 -36
15 -24 5 -26 3 -21 -19 4 -25 -12 -35 -21 -12 -3 6 -6 3 -6 -7 -1 -11 -8 -28
-18 -38 -18 -20 -14 -31 10 -22 9 3 13 12 11 19 -4 10 1 12 15 8 16 -4 21 -1
21 16 0 11 5 21 10 21 6 0 10 -10 10 -22 0 -17 3 -19 12 -10 20 20 28 14 16
-13 -8 -18 -8 -28 1 -38 6 -8 9 -22 5 -30 -11 -29 5 -38 38 -21 30 16 31 15
25 -5 -7 -27 19 -34 110 -28 48 3 74 0 90 -10 19 -12 22 -12 30 2 8 14 40 19
86 14 24 -3 21 -26 -5 -35 -35 -11 -970 -6 -1083 6 -55 6 -131 20 -170 30 -38
10 -95 21 -125 25 -30 4 -75 13 -99 21 -40 12 -44 11 -48 -7 -6 -22 -33 -26
-33 -4 0 8 -9 19 -20 25 -17 9 -20 7 -26 -15 -8 -32 -22 -32 -30 0 -9 34 -21
31 -29 -8 -8 -35 -22 -57 -37 -57 -5 0 -2 7 6 16 19 18 11 38 -11 30 -23 -9
-54 13 -66 47 l-10 31 -12 -39 -12 -40 -7 30 c-13 53 -15 55 -41 55 -27 0 -34
-17 -10 -26 34 -14 11 -66 -28 -63 -7 0 -2 4 11 9 30 13 28 27 -8 45 -18 10
-30 23 -30 36 0 11 -5 17 -10 14 -6 -4 -9 -14 -8 -23 2 -13 -5 -17 -27 -19
-16 -1 -22 1 -12 3 26 8 20 24 -9 24 -18 0 -25 -4 -21 -14 3 -7 1 -18 -5 -24
-14 -14 5 -39 35 -45 l22 -4 -22 -2 c-12 0 -29 6 -37 15 -19 18 -21 75 -4 92
9 9 7 13 -6 18 -23 9 -34 -9 -42 -68 -8 -57 -19 -63 -19 -12 0 44 -24 65 -49
45 -23 -19 -20 -57 6 -75 25 -18 17 -21 -13 -6 -13 7 -19 21 -19 45 0 38 22
65 53 65 36 0 6 17 -51 29 -81 17 -90 15 -84 -14 2 -14 -1 -32 -8 -40 -9 -11
-9 -22 -1 -46 14 -41 7 -49 -11 -12 -20 41 -51 38 -59 -7 -5 -26 -7 -16 -9 40
-2 41 -3 82 -4 90 -1 18 -58 28 -341 60 -104 11 -203 25 -220 30 -18 6 478 6
1250 2 704 -4 1332 -7 1395 -7 99 0 126 4 196 28 98 33 227 51 255 37 17 -10
59 5 59 20 0 3 -51 4 -112 3 -86 -2 -133 -9 -197 -28 -79 -23 -98 -25 -308
-25 -142 0 -223 4 -223 10 0 6 87 11 238 12 130 2 -89 5 -488 8 -456 3 -731 9
-742 15 -15 9 -17 41 -21 280 -2 149 -2 276 0 283 3 8 27 12 74 12 l69 0 0
-37 c0 -21 5 -45 11 -53 7 -11 9 99 5 370 -8 535 -10 1272 -3 1350 3 43 2 52
-3 25 -6 -33 -7 -27 -7 35 -1 57 1 68 8 45 5 -19 6 -2 2 45 -9 113 -11 290 -2
339 4 24 17 57 29 75 20 29 20 29 -9 -4 -17 -19 -31 -40 -31 -47 0 -12 -31
-18 -42 -8 -2 3 -1 33 4 67 6 43 4 81 -4 118 -7 31 -13 155 -15 285 -2 127 -6
307 -9 402 -5 159 -4 174 15 212 22 42 46 61 78 61 35 0 129 -245 161 -420 11
-56 42 -216 90 -462 l27 -138 48 0 49 0 -6 38 c-3 20 -8 73 -11 117 -10 133
-35 327 -49 385 -8 30 -21 114 -30 185 -10 72 -21 146 -25 165 -4 19 -9 63
-10 98 -3 68 13 87 51 63 13 -8 34 -10 58 -6 23 4 45 2 58 -6 16 -10 30 -7 93
24 41 20 88 39 104 42 55 12 169 58 225 91 86 50 196 161 209 209 10 36 8 46
-19 100 -65 132 -152 213 -250 234 -28 6 -96 11 -151 11 -106 0 -150 12 -183
49 -20 22 -20 13 3 290 5 68 4 88 -10 110 -35 55 -56 64 -174 73 -60 5 -152
15 -203 23 -171 28 -189 50 -172 218 6 62 16 127 22 145 7 24 7 56 -1 111 -9
62 -9 90 3 145 15 75 14 206 -3 302 -6 33 -13 164 -14 290 -2 127 -7 236 -11
243 -5 7 -12 62 -17 122 -8 99 -7 116 12 172 11 34 25 67 31 74 6 8 4 39 -7
95 -15 72 -16 100 -6 218 18 211 16 235 -19 324 -30 78 -31 83 -27 212 4 149
12 170 72 198 39 19 86 16 135 -9 14 -7 72 -15 130 -17 63 -4 120 -12 144 -22
51 -21 72 -20 96 4 28 28 26 86 -4 130 -26 38 -26 38 -311 101 -119 26 -144
34 -170 60 l-31 29 -419 0 -418 0 19 -22z m1182 -3622 c18 -11 15 -47 -8 -83
-22 -37 -63 -49 -137 -39 -26 4 -75 8 -108 9 -99 5 -144 38 -104 78 18 18 30
21 78 17 41 -4 72 1 119 17 61 21 127 22 160 1z m-142 -526 c31 -20 33 -23 30
-76 -4 -65 -18 -85 -54 -78 -15 3 -47 -1 -72 -10 -24 -8 -45 -14 -46 -13 -21
25 -54 84 -54 97 0 25 49 66 100 84 58 20 57 20 96 -4z m-174 -1925 c9 -12 10
-91 2 -122 -12 -44 -128 -22 -155 29 -9 17 -8 23 6 31 9 5 27 20 38 34 34 39
91 53 109 28z m-172 -2168 c49 -17 52 -44 4 -53 -38 -7 -803 2 -811 10 -12 12
80 19 232 17 94 -1 189 2 213 5 43 6 46 19 8 26 -11 1 57 4 150 5 111 1 181
-2 204 -10z m-744 -198 c28 -31 25 -96 -5 -120 -73 -59 -153 49 -86 116 30 30
66 32 91 4z"/>
<path d="M3831 9953 c-1 -112 4 -191 13 -236 13 -61 13 -78 -1 -145 -20 -94
-24 -373 -7 -379 7 -2 10 -14 7 -26 -3 -13 -1 -17 4 -10 4 6 6 -108 5 -254 -4
-242 -6 -267 -23 -284 -10 -10 -25 -43 -34 -73 -16 -53 -15 -60 6 -143 21 -84
21 -104 19 -528 -2 -242 -3 -505 -3 -585 -1 -176 11 -477 22 -545 14 -85 13
-157 -4 -250 -13 -68 -16 -137 -14 -280 2 -104 1 -365 -1 -580 -9 -746 -7
-876 12 -912 22 -43 33 -216 23 -376 l-7 -125 -33 37 c-41 45 -61 86 -70 136
-9 54 -93 311 -118 360 -11 22 -44 64 -73 94 -69 68 -69 56 -8 -121 61 -178
108 -346 124 -443 7 -44 24 -101 36 -127 21 -42 29 -93 25 -165 -1 -15 -7 -23
-18 -23 -10 0 -25 -5 -33 -11 -13 -9 -13 -10 0 -7 8 1 33 -6 55 -16 22 -10 57
-26 77 -35 l37 -16 3 -460 3 -460 5298 -3 5297 -2 0 -273 0 -272 -31 -18 c-22
-12 -71 -21 -163 -28 -299 -23 -1099 -150 -1491 -235 -78 -17 -386 -101 -510
-139 -79 -25 -222 -34 -209 -14 3 5 14 9 24 9 10 0 22 5 25 10 4 7 -1207 9
-3688 8 -3522 -3 -3694 -4 -3711 -21 -15 -15 -17 -29 -12 -101 3 -45 2 -103
-3 -128 -5 -27 -4 -53 1 -62 5 -9 9 -76 9 -149 -2 -386 -1 -558 5 -608 6 -52
4 -58 -15 -64 -30 -9 -351 -10 -378 -1 -19 6 -23 15 -23 46 0 21 5 42 10 45
16 10 12 34 -21 103 -28 58 -31 74 -30 144 1 59 8 93 25 133 27 61 39 107 38
149 -1 35 16 60 43 64 31 6 56 32 46 50 -6 11 -1 22 20 40 16 13 29 30 29 38
0 16 -30 33 -47 27 -6 -2 -14 1 -18 6 -3 6 -16 11 -29 11 -48 0 -77 66 -80
180 -2 58 -6 84 -17 91 -8 5 -46 9 -85 9 -193 0 -289 91 -308 290 -3 30 -6
183 -6 340 -1 168 -5 276 -10 264 -16 -41 -31 -210 -31 -369 0 -97 -6 -183
-14 -220 -26 -113 -26 -137 -5 -245 17 -82 20 -124 15 -192 -4 -57 -2 -100 6
-127 10 -33 10 -59 1 -119 -10 -64 -9 -85 3 -126 11 -35 15 -97 15 -217 0
-190 6 -179 -93 -179 -39 0 -58 -3 -51 -10 5 -5 80 -10 166 -12 130 -2 154 -5
145 -16 -8 -11 -7 -16 4 -23 12 -6 16 -27 18 -75 2 -57 -1 -70 -20 -90 -12
-13 -18 -24 -12 -24 6 0 13 5 15 11 2 6 23 9 48 7 l45 -3 -42 -23 c-24 -12
-43 -25 -43 -28 0 -2 8 0 19 5 17 9 18 5 20 -57 1 -49 6 -70 18 -79 14 -11 12
-15 -21 -28 -97 -41 -149 -66 -144 -70 2 -2 26 4 54 14 95 36 94 36 94 3 0
-32 12 -46 50 -57 14 -4 29 -13 33 -19 6 -8 10 -8 14 2 2 6 16 12 29 12 14 0
22 -4 19 -10 -7 -12 10 -13 56 -3 33 7 33 7 9 14 -23 6 -22 7 8 8 24 1 31 -2
26 -11 -6 -10 -5 -10 7 -1 8 7 55 14 105 17 322 15 384 20 384 29 0 5 7 6 18
1 16 -8 213 -14 552 -17 85 -1 225 2 310 7 263 15 860 12 860 -5 0 -4 16 -9
36 -11 43 -5 49 4 80 122 12 46 28 88 35 91 56 26 98 34 206 37 98 2 127 0
146 -12 20 -14 26 -14 43 -1 28 21 251 21 281 0 19 -13 24 -13 50 0 36 19 272
22 291 3 9 -9 15 -9 24 0 17 17 289 17 306 0 9 -9 15 -9 24 0 17 17 295 17
301 0 3 -10 9 -10 28 0 19 10 60 12 159 8 165 -6 148 -6 304 0 88 4 138 1 158
-7 22 -9 32 -9 41 0 15 15 279 15 294 0 8 -8 17 -8 31 0 29 16 284 15 300 -1
9 -9 15 -9 24 0 17 17 289 17 306 0 9 -9 15 -9 24 0 8 8 57 12 155 12 l143 0
17 27 c9 16 28 39 41 53 20 20 23 32 19 64 -3 21 -10 43 -15 48 -16 16 -137
19 -847 22 l-650 3 -250 47 c-137 26 -297 56 -355 67 -97 19 -422 79 -426 79
-17 0 5 203 24 222 4 4 576 7 1280 6 l1272 -3 0 65 0 65 68 35 c65 34 70 35
177 34 74 -1 126 -7 159 -19 71 -24 122 -24 196 1 36 12 107 34 159 48 52 15
147 49 210 76 171 71 403 143 413 127 11 -17 10 -27 -2 -27 -5 0 -10 -6 -10
-13 0 -7 -51 -46 -112 -85 -62 -40 -144 -94 -183 -121 -38 -27 -89 -59 -111
-72 -251 -144 -507 -310 -598 -388 -130 -111 -289 -319 -376 -491 -96 -191
-168 -489 -153 -632 l6 -58 3288 0 3289 0 0 66 c0 106 14 100 -222 92 -426
-14 -792 -14 -816 0 -31 18 -44 55 -31 89 6 15 13 64 15 108 3 44 11 103 19
130 7 28 16 67 20 89 l6 38 67 -6 c48 -4 61 -3 44 4 -13 5 -20 14 -17 20 3 5
-1 10 -10 10 -8 0 -20 12 -26 28 -10 26 -13 320 -4 372 5 23 4 23 -10 -5 -15
-29 -15 -26 -9 50 3 44 17 145 30 225 14 80 41 244 60 365 19 121 45 252 58
290 13 39 27 89 31 112 5 31 17 51 46 78 21 19 47 35 57 35 39 -1 138 -30 148
-44 6 -9 14 -13 18 -9 15 16 82 1 108 -24 15 -14 33 -23 41 -20 8 3 24 -3 35
-14 12 -10 26 -19 32 -19 5 0 10 -5 10 -11 0 -5 -5 -7 -11 -3 -6 3 -4 -8 5
-24 9 -17 16 -40 16 -50 0 -18 14 -19 247 -25 l247 -6 31 -33 c42 -47 65 -94
53 -106 -16 -16 1 -36 18 -21 11 9 16 6 24 -17 8 -20 8 -29 -1 -35 -7 -4 -9
-15 -5 -25 4 -11 10 -14 14 -9 31 44 86 -50 86 -145 -1 -30 -17 -127 -36 -215
-20 -88 -48 -225 -63 -305 -14 -80 -35 -189 -46 -242 -10 -53 -19 -111 -19
-128 0 -17 -9 -68 -19 -113 -10 -45 -24 -110 -30 -145 -25 -132 -81 -272 -145
-355 l-36 -47 560 0 560 0 0 100 0 100 -97 1 c-54 0 -141 4 -193 8 -53 4 -106
3 -120 -2 -14 -5 -112 -13 -218 -19 -243 -12 -244 -11 -203 117 11 33 24 83
31 110 6 28 21 68 33 90 19 34 28 40 60 43 31 3 43 -2 68 -27 31 -31 62 -40
74 -21 3 6 17 10 31 10 14 0 34 9 46 20 30 28 34 26 51 -22 l14 -43 64 1 c235
2 299 7 297 23 -2 10 6 17 22 19 21 4 22 2 11 -12 -16 -20 -10 -29 12 -20 15
6 17 147 17 1761 l0 1755 -28 -7 c-59 -12 -178 -22 -197 -15 -11 4 -47 6 -80
5 -33 -1 -66 0 -72 3 -23 8 -14 60 15 92 25 28 114 65 127 52 6 -6 18 -8 143
-17 l92 -8 0 112 c0 82 -3 111 -12 111 -60 2 -220 31 -240 44 -14 9 -37 39
-52 66 -34 63 -43 155 -26 295 15 130 24 356 16 389 -4 17 -13 26 -27 26 -34
0 -101 -163 -147 -362 -37 -156 -86 -255 -148 -297 -54 -37 -80 -39 -223 -14
-116 20 -141 28 -180 56 -55 40 -94 94 -116 162 -23 70 -52 345 -59 560 -6
174 -18 332 -35 482 -11 97 -23 107 -120 110 -42 1 -91 5 -110 9 -24 5 -32 3
-27 -5 4 -6 2 -11 -3 -11 -6 0 -11 4 -11 9 0 5 -28 7 -62 6 -40 -2 -57 0 -47
6 10 6 3 9 -23 9 -27 0 -41 6 -53 23 -15 21 -17 21 -29 5 -14 -18 -27 -24 -25
-10 4 25 -5 30 -51 30 -28 1 -53 -4 -57 -11 -5 -7 -30 -30 -57 -51 -67 -54
-80 -89 -69 -190 9 -91 7 -136 -8 -183 -13 -41 -24 -42 -38 -2 -18 53 -23 123
-12 166 10 36 8 54 -14 132 -30 108 -35 262 -10 311 18 36 26 37 180 44 84 3
141 11 190 26 54 17 83 21 128 16 32 -3 64 -9 70 -13 39 -25 94 -28 429 -27
l357 1 48 30 c97 62 172 72 506 73 l167 0 0 1064 0 1064 -377 4 c-335 3 -382
5 -418 21 -51 23 -78 48 -128 122 -38 56 -41 64 -39 125 1 36 -3 101 -8 145
-9 75 -15 233 -25 670 -3 99 -6 205 -7 235 -6 109 22 343 43 355 4 3 0 23 -8
45 l-16 40 -881 0 -881 0 7 -192 c3 -106 9 -213 12 -238 11 -90 18 -145 23
-165 3 -15 12 -384 13 -530 0 -78 -9 -256 -14 -264 -13 -20 -6 -666 7 -776 22
-174 45 -255 74 -255 7 0 13 -5 13 -11 0 -5 4 -8 9 -5 32 20 62 -135 59 -304
-3 -127 12 -494 29 -715 24 -323 8 -685 -31 -685 -7 0 -21 -9 -30 -19 -10 -11
-24 -17 -31 -15 -34 14 -59 -147 -50 -331 4 -77 9 -143 11 -146 5 -10 27 -248
25 -284 -1 -16 -4 -43 -7 -60 -5 -29 -4 -29 12 -10 16 20 16 20 10 -5 -3 -14
-6 -31 -6 -38 0 -7 -4 -11 -9 -8 -5 4 -11 1 -13 -5 -5 -14 -110 207 -133 278
-13 39 -14 56 -5 72 6 12 15 21 19 21 5 0 12 10 15 23 11 38 9 358 -3 442 -7
52 -13 378 -16 945 -3 476 -7 942 -9 1035 -3 94 -8 283 -11 420 -3 138 -8 282
-10 320 -3 39 -8 205 -11 370 -4 165 -8 354 -9 420 -2 66 -4 254 -5 418 l-3
297 -5677 0 -5678 0 -1 -167z m12551 -315 c-9 -9 -8 -14 3 -22 20 -15 24 -58
6 -64 -8 -3 -11 0 -7 7 4 6 2 11 -3 11 -6 0 -11 -7 -11 -15 0 -7 -7 -18 -17
-23 -9 -5 -17 -18 -18 -28 0 -11 -5 -25 -9 -33 -7 -10 -3 -12 13 -6 12 4 21 2
21 -4 0 -6 -6 -11 -14 -11 -8 0 -18 -5 -22 -11 -4 -8 0 -9 15 -4 17 5 21 3 18
-13 -2 -11 -8 -27 -15 -34 -6 -8 -9 -18 -6 -21 3 -3 3 -11 -2 -18 -5 -9 -10
-8 -19 4 -8 11 -9 36 -4 79 4 35 3 86 -2 114 -14 75 0 104 48 104 28 0 34 -3
25 -12z m-659 -393 c18 -8 59 -16 92 -17 85 -4 90 -17 88 -216 -1 -157 -9
-189 -42 -177 -11 3 -9 0 4 -11 19 -16 19 -16 -5 -9 -14 4 -28 12 -31 17 -3 5
-14 6 -24 2 -13 -5 -16 -4 -11 4 8 13 -3 16 -21 4 -17 -11 -59 -147 -67 -217
-14 -123 -18 -141 -39 -180 -30 -54 -65 -70 -111 -51 -19 8 -39 23 -44 33 -7
11 -9 121 -7 288 5 333 11 412 32 444 27 42 73 79 111 89 21 6 39 10 40 11 2
1 18 -6 35 -14z m-1663 -3085 l0 -2760 -4905 0 -4905 0 0 2760 0 2760 4905 0
4905 0 0 -2760z m2437 2409 c13 0 50 -6 83 -13 33 -8 60 -12 60 -10 0 3 5 2
11 -2 26 -15 -34 -30 -116 -28 -47 1 -85 -2 -85 -6 0 -5 -8 -9 -17 -9 -10 0
-45 -4 -78 -8 -33 -4 -99 -7 -146 -8 -72 0 -91 3 -108 19 -37 34 -32 37 99 62
40 7 106 10 170 7 58 -3 115 -5 127 -4z m-530 -3226 c11 -23 9 -32 -18 -80
-50 -88 -91 -94 -108 -16 -5 27 -6 56 -1 69 22 56 106 74 127 27z m-30 -568
c80 -34 86 -60 58 -249 -8 -55 -15 -119 -15 -142 0 -24 -4 -46 -10 -49 -5 -3
-10 -16 -10 -29 0 -29 -20 -86 -28 -83 -4 1 -30 -8 -57 -20 -34 -15 -61 -36
-84 -67 -19 -25 -36 -46 -38 -46 -13 0 -187 414 -212 505 -21 76 -18 81 54 99
35 9 79 16 98 16 20 0 55 13 90 34 87 53 97 55 154 31z m661 -682 c26 -15 49
-31 50 -35 14 -33 57 -67 99 -78 27 -7 56 -14 66 -17 13 -3 17 -15 17 -48 0
-24 4 -46 9 -50 6 -3 10 -54 10 -113 1 -145 8 -192 30 -185 9 4 19 11 23 17 4
6 8 -4 8 -22 0 -20 -4 -31 -10 -27 -6 4 -10 -7 -10 -27 0 -18 -4 -85 -9 -148
-5 -63 -12 -189 -16 -280 -7 -176 -23 -381 -30 -389 -3 -2 -5 1 -5 7 0 7 -4
12 -10 12 -5 0 -10 -15 -10 -34 0 -38 14 -46 87 -46 49 0 46 -10 62 190 45
541 51 592 93 758 23 89 46 162 51 162 7 0 7 -45 3 -127 -4 -71 -10 -162 -12
-203 -8 -142 -70 -769 -77 -776 -3 -4 -74 -10 -157 -14 -83 -4 -153 -10 -157
-14 -3 -3 54 -7 128 -8 74 0 139 -2 144 -3 6 -2 19 -4 30 -5 48 -5 -61 -19
-202 -26 -84 -3 -153 -11 -153 -15 0 -5 4 -9 8 -9 5 0 9 -34 10 -76 1 -42 6
-81 11 -88 5 -6 12 -30 16 -52 6 -40 5 -41 -25 -48 -45 -9 -140 39 -125 63 7
13 6 13 -55 16 -25 1 -50 -2 -56 -7 -7 -5 -57 -4 -120 1 -60 6 -167 11 -239
12 -125 1 -174 10 -176 33 -2 33 -5 88 -7 139 -2 50 -5 57 -22 57 -13 0 -20 7
-20 20 0 17 5 19 48 15 l47 -5 -39 13 c-25 9 -43 22 -49 38 -36 88 -91 197
-110 218 -33 35 -81 63 -193 109 -55 24 -117 54 -138 68 -21 14 -40 23 -44 20
-3 -4 4 -30 16 -59 12 -29 22 -56 22 -60 0 -11 -79 -8 -101 3 -24 13 -25 59
-4 141 14 54 14 64 -1 116 -43 147 27 304 156 350 54 19 55 22 39 88 -12 47
-7 85 6 50 70 -185 99 -255 107 -255 5 0 7 -4 4 -9 -3 -5 10 -53 30 -108 19
-54 40 -114 46 -133 5 -19 14 -39 18 -45 4 -5 17 -39 29 -75 12 -36 26 -74 31
-85 31 -68 86 -216 81 -223 -1 -1 5 -15 14 -32 8 -16 15 -43 15 -60 0 -28 3
-30 36 -30 19 0 33 3 31 8 -3 4 -75 184 -161 401 -153 385 -160 410 -124 411
3 0 34 -72 69 -160 35 -88 67 -159 73 -157 35 12 32 158 -4 232 -27 57 -100
132 -146 151 -36 15 -65 44 -43 44 31 0 122 -52 160 -91 87 -88 115 -214 90
-397 l-11 -82 71 -177 c39 -98 76 -181 82 -186 7 -4 57 -7 112 -7 55 0 207 -3
337 -6 l237 -6 5 33 c3 19 10 131 16 249 6 118 13 247 16 285 2 39 9 142 14
230 5 105 16 190 31 248 12 48 19 91 15 94 -4 4 -80 8 -169 9 -185 2 -242 14
-314 66 -81 59 -82 76 -4 135 39 30 108 57 171 67 17 2 24 9 22 21 -3 13 1 15
17 10 15 -5 21 -2 21 10 0 10 -5 13 -12 9 -7 -4 -8 -3 -4 4 11 18 33 14 84
-15z m462 -165 c47 -14 52 -20 45 -51 -6 -21 -17 -29 -58 -41 -29 -8 -73 -18
-99 -21 l-48 -7 0 61 c0 55 3 63 23 71 24 10 81 5 137 -12z m315 -250 c3 -83
0 -222 -9 -350 -8 -117 -18 -276 -21 -353 -3 -77 -10 -183 -16 -236 l-11 -96
-69 -5 c-82 -6 -119 -1 -119 18 0 8 10 18 23 23 20 8 25 28 69 297 34 206 49
331 53 434 4 100 13 179 30 255 14 61 30 137 37 170 l12 60 7 -40 c5 -22 11
-102 14 -177z m-1520 10 c10 -49 22 -88 27 -88 6 0 7 16 4 38 -3 20 -7 64 -10
97 l-5 60 25 -75 c22 -66 46 -190 37 -190 -2 0 -8 10 -13 23 -9 22 -9 22 -9
-3 -1 -38 13 -53 39 -45 18 6 22 4 17 -7 -3 -8 3 -47 14 -85 54 -202 81 -306
100 -383 12 -47 34 -116 48 -155 14 -38 26 -74 26 -80 0 -5 3 -12 7 -15 4 -3
10 -26 13 -50 5 -42 4 -43 -6 -15 -6 17 -17 37 -24 45 -7 8 -21 38 -31 67 -10
29 -21 48 -25 42 -3 -6 -14 18 -23 53 -48 173 -80 263 -113 311 -75 109 -99
187 -109 352 -3 44 -9 107 -14 140 -22 139 -5 113 25 -37z m388 44 c54 -24
118 -85 149 -144 20 -37 23 -58 23 -143 0 -114 -3 -123 -110 -285 -35 -53 -65
-111 -68 -130 -3 -19 1 -89 9 -155 8 -66 14 -133 13 -150 l-1 -30 -12 33 c-6
18 -14 31 -17 27 -4 -3 -4 5 -2 18 3 14 0 28 -6 31 -6 4 -11 18 -11 30 0 13
-10 31 -22 40 -15 11 -17 15 -6 12 12 -3 15 -1 11 9 -3 8 -9 13 -14 10 -4 -3
-13 3 -18 14 -14 25 -14 31 0 31 5 0 7 -4 4 -10 -3 -5 -1 -10 4 -10 18 0 12
17 -11 32 -18 12 -22 24 -22 71 0 37 -4 58 -13 61 -14 6 -18 36 -4 36 4 0 6
11 4 24 -4 21 -1 23 46 29 79 9 137 52 179 132 37 69 38 187 3 258 -40 81 -98
137 -159 153 -75 19 -146 3 -188 -41 -28 -30 -31 -31 -42 -15 -8 14 -7 21 6
33 68 59 180 71 275 29z m-2424 -1617 c36 -18 45 -40 29 -76 l-13 -29 -374 0
c-206 0 -372 2 -370 4 2 2 76 16 164 30 88 15 214 38 280 51 196 40 241 43
284 20z m-13 -439 c17 -13 19 -27 19 -148 0 -156 -23 -651 -31 -673 -5 -12 -8
-12 -19 -1 -17 17 -208 26 -537 26 -192 0 -248 3 -248 13 0 6 29 95 64 197 35
102 74 214 86 250 12 36 45 121 74 190 l52 125 232 0 c207 0 233 2 249 18 21
21 33 21 59 3z m-1328 -12 c29 -8 29 -35 -1 -117 -17 -45 -21 -71 -15 -87 10
-28 -10 -92 -97 -310 -34 -85 -70 -179 -79 -208 -16 -46 -38 -73 -51 -61 -2 3
4 30 13 62 10 39 12 61 5 65 -26 17 -36 63 -40 181 -6 134 7 212 57 344 35 93
129 152 208 131z m-488 -39 c18 -22 7 -73 -40 -189 -22 -55 -40 -105 -40 -113
0 -7 -4 -13 -8 -13 -4 0 -13 -14 -19 -31 -17 -43 -43 -35 -59 19 -7 24 -10 59
-7 78 8 46 -11 87 -47 103 -28 12 -32 11 -55 -11 -14 -12 -35 -37 -46 -55 -11
-17 -33 -38 -50 -45 -25 -11 -29 -18 -27 -43 2 -16 15 -43 31 -59 15 -17 27
-35 27 -40 0 -5 7 -18 16 -27 15 -17 15 -20 0 -44 -9 -14 -22 -25 -29 -26 -6
0 -48 -4 -92 -9 -120 -12 -237 3 -309 40 -32 16 -72 30 -88 30 -71 0 -28 67
92 145 76 49 128 70 193 80 28 4 57 17 73 31 27 26 155 94 175 94 6 0 46 17
88 37 42 20 90 43 106 49 43 18 100 17 115 -1z m5490 -444 c-5 -180 -6 -192
-20 -166 -12 22 -12 29 -2 32 6 3 9 10 5 16 -18 27 -18 247 -1 417 l13 125 5
-115 c3 -64 3 -203 0 -309z m-6502 -384 c9 -7 20 -7 35 1 35 17 284 23 297 6
7 -7 23 -14 38 -16 24 -3 28 -10 44 -68 29 -113 35 -123 64 -116 14 4 152 7
308 7 l283 0 12 25 c33 73 379 160 681 171 197 7 353 -11 560 -63 184 -47 261
-84 300 -142 66 -99 24 -130 -212 -158 -196 -22 -373 -21 -498 4 -154 31 -741
95 -778 85 -11 -3 -22 -13 -25 -23 -3 -14 -18 -19 -58 -23 -95 -9 -411 1 -497
16 l-83 14 2 -46 c1 -25 -2 -62 -5 -82 -14 -69 7 -68 334 7 81 18 340 35 440
28 76 -5 252 -26 600 -69 167 -21 241 -25 517 -26 313 -1 323 0 349 20 34 27
54 16 71 -40 20 -67 17 -132 -7 -154 -18 -16 -25 -17 -60 -6 -32 9 -117 10
-378 1 -185 -6 -343 -13 -351 -16 -8 -3 -565 -4 -1239 -4 -1298 0 -1254 -1
-1292 45 -11 13 -11 26 -1 71 7 31 21 71 32 88 17 29 17 35 4 52 -21 28 -19
53 16 161 36 113 79 208 108 242 17 19 27 22 55 17 20 -4 37 -2 41 4 8 13 275
1 293 -13z"/>
<path d="M11968 8415 c-21 -19 -38 -42 -38 -51 0 -8 -4 -24 -10 -34 -8 -15 -3
-22 35 -44 66 -39 92 -41 150 -8 31 17 49 34 46 43 -2 8 -7 29 -12 48 -11 48
-39 72 -90 77 -39 4 -48 1 -81 -31z"/>
<path d="M7295 8390 c-11 -5 -16 -9 -11 -9 5 -1 -1 -12 -14 -26 -12 -13 -27
-22 -31 -19 -5 3 -11 -8 -15 -23 -3 -15 -10 -41 -15 -57 -11 -35 -10 -36 66
-76 75 -39 114 -34 221 33 12 7 -2 77 -27 130 -21 47 -116 72 -174 47z m145
-120 c32 0 26 -43 -11 -74 -23 -19 -42 -26 -74 -26 -52 0 -105 38 -105 75 0
19 7 24 45 29 24 4 47 11 50 16 3 5 21 2 40 -6 19 -8 44 -14 55 -14z"/>
<path d="M8058 7069 c-2 -12 -10 -25 -18 -29 -8 -4 -35 -18 -60 -29 -25 -12
-53 -33 -63 -46 -17 -24 -17 -26 3 -65 19 -38 62 -70 93 -70 8 0 20 -7 27 -15
7 -9 29 -15 51 -15 36 0 38 1 36 33 -2 25 -7 33 -27 38 -14 3 -35 0 -48 -8
-17 -11 -27 -11 -45 -2 -80 42 -76 94 10 129 18 7 30 16 27 21 -3 5 6 21 20
36 29 31 32 43 12 43 -8 0 -16 -10 -18 -21z"/>
<path d="M7145 6991 c-71 -31 -119 -158 -84 -223 10 -18 9 -20 -5 -15 -10 4
-16 1 -16 -8 0 -20 -15 -19 -85 10 -33 14 -61 25 -63 25 -2 0 7 -14 20 -32 37
-53 34 -61 -20 -54 -39 5 -44 4 -27 -6 19 -12 18 -13 -10 -18 -30 -6 -30 -7
15 -20 25 -7 47 -15 48 -16 2 -1 -11 -23 -30 -47 -29 -39 -39 -45 -82 -50 -45
-6 -83 -24 -72 -35 3 -2 -5 -13 -17 -23 -15 -13 -17 -17 -5 -13 15 5 15 2 -3
-32 -21 -42 -25 -98 -9 -139 14 -38 61 -94 91 -110 20 -11 32 -30 45 -71 19
-62 20 -70 8 -98 -5 -14 -4 -17 4 -12 7 4 12 2 12 -4 0 -7 7 -10 15 -6 18 6
19 -11 5 -49 l-10 -26 -85 77 c-50 45 -90 90 -97 110 -10 28 -17 33 -56 39
-24 4 -46 4 -49 1 -3 -3 -8 -66 -10 -141 l-5 -135 216 0 217 0 32 34 c32 35
74 55 155 76 60 15 214 15 243 -1 13 -7 36 -12 50 -11 14 1 38 -7 52 -18 14
-11 30 -20 37 -20 18 0 74 -31 83 -46 6 -11 55 -14 242 -14 l235 0 1 78 c7
405 7 623 2 654 -4 29 -12 40 -39 53 -18 8 -36 20 -39 25 -3 6 -22 10 -41 10
-19 0 -34 4 -34 10 0 10 -64 -8 -113 -31 -32 -15 -47 -3 -47 39 0 57 -95 171
-170 203 -16 8 -31 21 -33 31 -7 24 -35 34 -57 20 -10 -6 -71 -12 -136 -14
-109 -2 -121 -1 -149 19 -34 25 -100 37 -130 24z m124 -50 c20 -16 54 -65 88
-130 50 -96 53 -103 31 -98 -13 3 -77 11 -143 18 -66 7 -130 16 -141 20 -44
16 -39 124 7 184 41 51 98 53 158 6z m308 -332 c48 -23 56 -32 73 -80 12 -33
11 -40 -9 -74 -18 -32 -20 -40 -9 -55 7 -9 28 -36 45 -60 35 -46 39 -89 13
-142 -12 -25 -55 -62 -63 -56 -2 2 -11 -3 -19 -10 -17 -14 -27 -10 -105 41
-24 15 -47 27 -52 27 -23 0 -19 20 6 32 17 8 37 32 51 61 13 26 29 50 37 54
17 6 20 29 5 38 -6 4 -18 1 -27 -7 -12 -10 -76 -14 -263 -16 -211 -3 -251 -2
-271 12 -16 10 -29 12 -39 6 -12 -7 -11 -15 9 -52 13 -24 38 -59 55 -78 25
-27 26 -31 6 -15 l-25 19 25 -27 c14 -15 35 -29 45 -31 11 -3 37 -11 57 -20
20 -9 63 -19 95 -22 69 -8 78 -12 137 -63 l44 -38 -51 -6 c-93 -10 -261 5
-273 24 -3 5 -11 9 -19 9 -13 0 -81 29 -123 54 -38 22 -72 58 -72 77 0 10 -4
21 -10 24 -25 16 -3 92 39 129 17 15 21 31 21 78 0 37 4 57 10 53 6 -3 10 1
10 10 0 9 -4 13 -10 10 -18 -11 -10 32 10 58 41 52 138 42 169 -17 21 -38 62
-51 147 -48 32 2 53 12 100 48 32 26 71 52 86 58 43 19 99 17 145 -5z m420
-40 c41 -15 70 -47 89 -96 14 -36 15 -50 5 -83 -12 -40 -55 -81 -98 -95 -21
-6 -23 -3 -23 27 0 18 4 50 9 71 7 28 5 48 -5 74 -8 19 -13 40 -11 46 3 7 -7
24 -21 40 l-26 27 26 0 c15 0 39 -5 55 -11z"/>
<path d="M9196 6975 c-33 -7 -70 -18 -83 -24 -31 -14 -36 -14 -28 2 4 6 -8 -3
-25 -22 -29 -31 -32 -38 -26 -77 4 -35 3 -44 -10 -44 -22 0 -86 -35 -108 -59
-20 -22 -23 -20 52 -46 30 -11 -3 -27 -44 -22 -24 2 -41 1 -38 -4 3 -5 0 -9
-7 -9 -7 0 -5 -8 6 -20 14 -15 15 -20 4 -20 -8 -1 -1 -8 16 -17 21 -11 30 -12
33 -4 2 6 15 24 28 40 18 21 30 27 49 23 16 -3 25 0 25 8 0 7 -8 10 -20 7 -11
-3 -20 -1 -20 4 0 4 9 13 20 19 11 6 20 8 20 5 0 -4 14 4 31 16 29 20 37 21
146 14 64 -3 126 -12 137 -19 12 -8 42 -19 69 -26 26 -7 49 -16 51 -19 2 -3
-30 -4 -72 -3 -91 4 -92 -3 -2 -17 59 -10 66 -9 81 8 19 24 39 10 39 -27 0
-15 4 -21 12 -16 8 5 9 -2 5 -24 -7 -34 3 -41 23 -18 16 21 40 8 40 -21 0 -13
4 -21 10 -18 6 3 10 -3 10 -14 0 -12 7 -21 15 -21 8 0 15 -8 15 -17 1 -16 2
-16 15 1 14 18 15 18 15 2 0 -10 5 -14 11 -10 6 3 9 29 7 63 l-3 56 29 -2 c99
-7 99 -142 1 -157 -17 -3 -46 -8 -66 -11 -30 -4 -38 -11 -44 -33 l-7 -27 -10
28 c-10 27 -11 27 -71 22 -34 -3 -109 -7 -167 -10 -163 -7 -170 -9 -209 -66
-18 -27 -36 -49 -40 -49 -4 0 -15 24 -25 53 -19 57 -34 67 -118 83 -24 4 -38
12 -38 21 0 8 -6 13 -12 10 -67 -24 -89 -29 -111 -23 -17 4 -29 15 -33 30 -3
13 -19 36 -35 50 -17 16 -29 36 -29 51 0 22 -4 25 -34 25 -43 0 -47 -6 -35
-56 6 -21 12 -46 13 -54 5 -31 18 -60 26 -60 5 0 15 -7 23 -15 12 -11 21 -12
45 -3 35 13 62 -1 62 -32 0 -13 6 -17 19 -13 10 3 22 0 26 -6 8 -13 -34 -122
-51 -133 -7 -5 -10 -25 -6 -54 4 -38 1 -50 -13 -61 -12 -8 -14 -13 -6 -13 8 0
11 -6 7 -15 -3 -8 -2 -15 2 -15 4 0 13 -30 20 -66 12 -65 51 -156 52 -121 0
20 26 23 33 3 5 -12 87 -15 525 -16 l518 -1 12 26 c17 37 16 361 -1 395 -8 15
-24 27 -42 30 l-30 6 24 13 c17 9 20 16 12 24 -18 18 -12 27 19 27 23 0 30 5
30 19 0 10 -7 21 -15 25 -8 3 -15 12 -15 21 0 8 -8 14 -17 13 -10 -1 -27 0
-37 0 -18 2 -18 3 -1 22 18 20 17 20 -9 20 -16 0 -25 4 -21 10 3 6 -1 10 -9
10 -20 0 -20 9 1 32 14 16 15 18 1 13 -11 -4 -19 2 -26 24 -6 16 -22 37 -36
46 -14 10 -26 27 -26 39 0 11 -4 28 -10 36 -6 9 -5 17 3 22 9 6 8 8 -2 8 -8 0
-20 8 -27 18 -8 10 -13 12 -14 5 0 -24 -17 -13 -49 32 -18 25 -58 65 -89 88
-32 23 -58 45 -60 50 -2 4 -11 7 -20 7 -9 0 -37 7 -62 16 -60 21 -152 25 -224
9z"/>
<path d="M5679 6845 l-4 -140 -260 -3 c-142 -1 -261 -5 -263 -7 -4 -4 -5 -71
-3 -145 1 -26 4 -31 11 -20 14 22 22 -7 18 -66 -3 -45 -4 -47 -20 -31 -9 9
-25 17 -35 17 -26 0 -79 35 -99 66 -32 48 -12 135 34 151 9 3 26 14 37 25 11
10 30 26 43 36 15 11 21 23 17 34 -11 29 -35 29 -61 1 -24 -26 -25 -26 -39 -7
-8 10 -18 29 -21 42 -8 29 -15 28 -46 -5 -34 -36 -65 -130 -71 -219 l-6 -71
54 -47 c54 -47 117 -76 161 -76 20 0 24 -5 24 -30 0 -28 -2 -30 -38 -30 -43 0
-53 -6 -45 -26 3 -9 20 -14 44 -14 39 0 39 0 39 -40 l0 -40 60 0 60 0 0 -47
c0 -26 -5 -61 -12 -79 -10 -28 -9 -36 5 -52 24 -26 21 -57 -5 -70 -16 -7 -18
-11 -7 -11 28 -2 17 -32 -13 -38 -50 -10 -41 -23 16 -23 30 0 61 -3 70 -6 11
-4 16 -1 16 10 0 21 16 20 29 -1 8 -14 10 -8 11 28 0 39 -3 48 -21 52 -18 5
-20 10 -14 34 9 30 9 34 -1 136 l-6 67 76 0 76 0 1 -37 c0 -21 2 -73 3 -116 3
-74 1 -79 -21 -88 -19 -7 -23 -15 -23 -51 1 -41 1 -42 16 -23 13 17 16 18 24
5 6 -12 23 -14 76 -12 44 3 62 7 53 13 -8 5 -22 6 -31 3 -10 -3 -18 -2 -19 3
0 4 -2 16 -4 26 -2 12 3 17 18 18 22 0 22 0 0 9 -27 11 -32 60 -8 80 8 7 15
20 15 30 0 10 -7 23 -15 30 -10 8 -15 30 -15 61 l0 49 80 0 c57 0 80 -4 80
-12 0 -7 9 6 20 28 12 23 64 87 115 142 76 80 99 99 116 95 26 -7 89 -69 89
-87 0 -7 -18 -33 -39 -58 -23 -25 -41 -57 -43 -74 -3 -25 0 -29 22 -29 21 0
25 4 23 28 -1 15 2 27 7 27 14 0 32 -40 27 -59 -2 -10 4 -23 15 -30 22 -14 42
-5 34 15 -6 16 10 19 19 4 12 -19 38 -11 32 10 -4 17 -1 20 21 18 30 -3 29 -6
13 85 -4 26 -15 55 -22 65 -8 9 -21 30 -29 46 -8 16 -35 50 -59 75 l-44 45 39
34 c70 61 122 92 153 92 23 0 29 -4 25 -15 -5 -12 -2 -14 12 -8 17 6 18 5 4
-12 -14 -17 -13 -18 8 -13 19 5 21 4 11 -8 -9 -11 -8 -14 5 -14 13 0 16 11 16
50 l0 50 -35 0 c-46 0 -117 -36 -179 -91 -37 -32 -58 -44 -85 -45 -112 -6
-178 -12 -193 -19 -15 -6 -18 -2 -18 24 0 26 4 31 25 31 16 0 25 6 25 15 0 9
-9 15 -25 15 l-25 0 0 120 c0 66 -3 119 -7 119 -41 -7 -64 3 -77 34 -8 17 -15
25 -17 17 -1 -8 -5 5 -9 30 -5 32 -8 5 -11 -95z m-233 -256 c3 -5 13 -9 23 -9
13 0 20 -9 23 -27 3 -16 8 -35 12 -44 9 -21 -33 -81 -69 -98 -41 -20 -103 2
-125 44 -8 17 -19 33 -23 36 -4 3 -1 19 8 35 8 16 15 34 15 39 0 28 120 49
136 24z"/>
<path d="M8981 6636 c-7 -8 -15 -30 -18 -50 -4 -24 -11 -36 -22 -36 -21 0 -37
11 -44 30 -3 9 -6 5 -6 -10 -1 -38 25 -70 59 -70 16 0 31 -4 34 -9 3 -4 43
-11 88 -15 46 -4 119 -14 163 -22 43 -9 98 -14 121 -10 48 6 101 34 107 56 3
8 8 24 12 35 6 19 6 19 -8 2 -8 -10 -30 -22 -48 -27 -28 -8 -36 -7 -46 7 -7 9
-13 25 -13 34 0 24 21 69 32 69 4 0 8 5 8 10 0 20 -29 10 -50 -17 -17 -22 -21
-37 -17 -71 5 -43 4 -43 -22 -37 -14 4 -55 18 -91 33 -52 21 -82 26 -152 27
-81 0 -88 1 -87 20 0 11 3 14 6 8 8 -20 23 -15 23 8 0 11 -4 17 -10 14 -14 -9
-13 8 2 23 8 8 8 12 1 12 -6 0 -16 -6 -22 -14z"/>
<path d="M12851 6099 c-19 -7 -21 -12 -11 -24 9 -11 9 -22 0 -49 -9 -28 -19
-37 -48 -45 -29 -9 -39 -7 -53 5 -23 21 -37 11 -45 -32 -7 -40 15 -74 50 -74
23 0 124 30 143 43 20 13 63 107 63 137 0 44 -43 61 -99 39z"/>
<path d="M12070 6027 c-19 -9 -26 -22 -28 -51 -4 -50 22 -76 77 -76 47 0 91
-36 91 -75 0 -28 -20 -35 -21 -7 0 11 -2 12 -6 4 -3 -7 1 -19 7 -27 14 -17 50
-20 50 -5 0 6 6 10 14 10 17 0 26 52 13 75 -6 11 -4 22 7 34 10 11 16 36 16
65 0 41 -3 48 -26 56 -36 14 -164 12 -194 -3z"/>
<path d="M11386 6004 c-3 -10 -6 -23 -7 -29 -1 -5 -9 -15 -17 -21 -8 -6 -13
-18 -9 -27 3 -9 -3 -27 -15 -42 -16 -21 -19 -35 -15 -67 4 -30 0 -53 -15 -82
-11 -23 -14 -35 -7 -28 7 6 20 12 29 12 9 0 22 11 28 25 7 14 20 25 31 25 26
0 61 38 61 66 0 16 14 33 47 55 87 60 133 72 298 78 124 5 150 9 150 21 0 32
-303 34 -324 2 -3 -5 -35 -21 -71 -37 -95 -40 -103 -44 -121 -57 -25 -18 -49
-3 -49 32 0 23 4 30 20 30 23 0 24 6 6 39 -13 23 -14 23 -20 5z"/>
<path d="M10967 5829 c-10 -6 -23 -9 -29 -7 -27 9 -67 -127 -44 -149 4 -5 7
-1 5 7 -4 23 11 79 24 87 14 10 187 21 181 12 -2 -3 4 -15 14 -25 24 -27 25
-123 1 -117 -18 5 -33 -22 -22 -39 4 -7 1 -8 -6 -4 -7 5 -10 13 -8 20 3 8 -4
11 -24 8 -16 -2 -26 -8 -23 -13 3 -5 0 -9 -7 -9 -8 0 -9 -3 0 -13 6 -8 8 -17
4 -20 -3 -4 21 -7 55 -7 l62 0 -1 93 c-1 105 -20 162 -51 154 -10 -3 -16 -1
-12 4 14 23 -85 38 -119 18z"/>
<path d="M11675 5735 c-5 -2 -23 -6 -38 -9 -15 -4 -25 -10 -22 -15 2 -5 -2
-12 -11 -15 -9 -3 -12 -2 -8 5 3 6 -3 5 -14 -2 -12 -7 -19 -16 -17 -19 2 -4
-2 -7 -9 -7 -7 0 -32 -14 -57 -31 -61 -43 -96 -73 -84 -71 6 1 18 1 28 0 31
-2 9 -18 -32 -24 -22 -3 -53 -15 -68 -26 -23 -19 -28 -20 -35 -7 -5 8 -4 43 1
76 9 54 8 64 -8 81 -18 20 -19 20 -23 -13 -3 -18 -5 -72 -4 -119 1 -58 -3 -90
-11 -98 -7 -7 -13 -9 -13 -6 0 6 -166 -130 -200 -163 -13 -13 -13 -14 0 -7 9
5 12 4 7 -1 -5 -5 -12 -9 -15 -9 -4 -1 -20 -8 -37 -17 -16 -8 -52 -19 -79 -23
-70 -10 -96 -22 -96 -44 0 -47 149 -55 273 -16 103 33 147 32 225 -5 35 -17
74 -30 85 -30 16 0 18 -3 9 -9 -10 -6 2 -21 45 -54 l58 -47 3 30 c3 25 -6 41
-44 83 -26 29 -54 67 -62 85 -9 17 -19 32 -24 32 -4 0 -8 9 -8 21 0 11 -4 17
-10 14 -5 -3 -10 -2 -10 3 0 6 -9 8 -20 5 -15 -4 -20 0 -20 13 0 16 2 17 10 4
8 -12 11 -13 19 -1 5 7 11 9 13 5 3 -5 4 -4 2 2 -1 6 -5 32 -9 56 -4 27 -12
45 -21 47 -8 1 -23 2 -34 3 -24 3 -9 21 19 23 13 1 17 -3 13 -14 -4 -13 -1
-12 16 2 21 19 42 16 42 -6 0 -7 -4 -6 -10 3 -5 8 -12 11 -17 7 -7 -8 57 -71
119 -117 22 -17 29 -18 40 -7 18 18 42 11 25 -8 -7 -7 -16 -11 -22 -8 -5 2 3
-7 19 -22 26 -24 30 -25 38 -10 6 10 5 22 -3 33 -11 14 -11 15 1 5 11 -10 17
-7 33 19 18 30 18 33 2 44 -13 10 -20 10 -30 1 -9 -9 -10 -14 -1 -19 7 -5 3
-8 -9 -9 -11 0 -30 -2 -42 -3 -12 -1 -21 2 -20 7 4 19 60 68 73 63 8 -3 11 0
7 9 -3 8 -9 13 -13 10 -12 -7 -18 53 -6 65 5 5 18 10 27 10 19 0 42 -24 32
-33 -3 -4 -1 -7 5 -7 6 0 9 -8 6 -17 -5 -15 -4 -15 4 -3 6 8 9 17 6 21 -2 4 4
14 14 21 28 20 33 34 22 62 -10 26 0 40 29 41 7 0 18 15 25 34 11 35 36 54 36
29 0 -7 9 -32 20 -56 l20 -44 23 19 c13 10 23 21 23 24 -2 12 27 39 41 39 8 0
12 -4 9 -9 -3 -5 21 -2 55 7 33 9 55 18 50 20 -22 7 1 22 32 21 27 0 29 -2 12
-9 -16 -7 -11 -9 20 -9 22 0 49 6 59 14 17 13 17 15 4 15 -9 0 -24 7 -32 16
-9 8 -16 11 -16 5 0 -18 -117 -14 -123 3 -4 10 2 16 16 18 46 8 -115 28 -214
27 -57 0 -108 -2 -114 -4z"/>
<path d="M12716 5584 c-9 -8 -16 -12 -16 -8 0 19 -31 -23 -41 -56 -9 -31 -8
-43 6 -74 17 -35 17 -40 1 -72 -23 -50 -20 -52 18 -15 28 27 40 32 61 27 64
-16 135 37 135 101 0 40 -22 88 -45 97 -23 8 -30 -19 -11 -46 20 -28 21 -42 2
-35 -9 4 -12 -2 -10 -21 5 -41 -4 -59 -29 -60 -12 0 -28 -1 -35 -3 -8 -2 -17
3 -21 11 -5 8 -13 25 -19 37 -26 49 -2 92 55 103 14 3 28 11 31 18 6 18 -63
15 -82 -4z"/>
<path d="M12315 5451 c-3 -5 8 -18 25 -28 17 -9 43 -35 58 -57 24 -34 27 -49
27 -116 0 -68 -3 -81 -28 -117 -78 -113 -256 -126 -348 -26 -15 15 -34 42 -43
60 -20 39 -20 129 -1 163 17 30 18 40 4 40 -18 0 -41 -73 -41 -126 1 -176 196
-283 365 -201 81 40 120 99 125 187 4 74 -9 116 -53 168 -31 37 -81 67 -90 53z"/>
<path d="M12184 5361 c-63 -38 -80 -130 -36 -191 28 -39 86 -63 129 -55 48 9
98 59 107 108 9 49 -21 115 -63 140 -36 21 -47 22 -27 1 20 -20 20 -27 -2 -54
-16 -19 -22 -21 -40 -11 -24 13 -29 50 -10 69 20 20 -22 15 -58 -7z"/>
<path d="M7180 5238 c0 -14 11 -30 28 -40 15 -10 53 -36 85 -59 55 -39 57 -43
57 -85 0 -40 -2 -44 -24 -44 -13 0 -38 -3 -55 -6 -24 -5 -31 -3 -31 10 0 18
-8 20 -28 8 -23 -15 -3 -40 29 -36 20 3 29 -1 29 -11 0 -16 -12 -20 -23 -8
-13 12 -64 12 -81 0 -16 -12 -10 -16 50 -34 91 -26 220 -23 326 9 46 14 48 23
7 37 -24 8 -29 15 -24 31 5 16 2 20 -14 20 -13 0 -21 -6 -21 -16 0 -12 -6 -15
-22 -10 -13 3 -40 6 -60 6 l-38 0 0 44 c0 31 -5 46 -16 50 -10 4 -14 14 -11
26 3 11 1 17 -5 14 -14 -9 -51 3 -75 25 -17 16 -21 28 -16 56 6 35 5 35 -31
35 -31 0 -36 -3 -36 -22z"/>
<path d="M8525 5239 c-61 -32 -125 -88 -125 -109 0 -14 5 -17 21 -13 32 9 42
-17 17 -44 -18 -19 -20 -28 -12 -51 11 -33 44 -43 44 -14 0 33 11 52 31 52 41
0 45 -64 6 -107 -25 -28 -47 -29 -81 -2 l-26 20 0 -29 c0 -17 6 -33 13 -35 10
-4 10 -6 0 -6 -9 -1 -13 -19 -13 -58 0 -31 3 -53 7 -49 4 4 7 26 6 49 -1 25 1
31 4 15 2 -16 9 -28 14 -28 5 0 7 11 3 25 -5 21 -3 25 17 26 l24 1 -25 8 c-25
8 -24 8 5 9 17 1 47 4 68 7 36 6 37 6 37 -24 0 -37 9 -62 22 -62 10 0 7 24 -8
78 -4 12 -2 22 4 22 5 0 12 -9 15 -20 3 -11 11 -20 17 -20 8 0 10 9 6 23 -5
21 1 26 51 48 32 13 61 26 65 27 17 7 7 -34 -10 -44 -10 -7 -24 -30 -30 -53
-7 -22 -18 -41 -24 -41 -7 0 -6 -6 2 -16 8 -8 25 -14 39 -12 20 2 29 12 41 46
9 23 23 49 32 58 23 24 96 29 138 11 l35 -16 -57 2 c-48 2 -55 0 -45 -12 10
-12 8 -13 -11 -9 -20 6 -21 4 -10 -9 21 -26 90 -53 136 -53 28 0 48 -6 62 -20
11 -11 27 -20 35 -20 8 0 15 -4 15 -10 0 -5 9 -10 20 -10 12 0 20 -7 20 -17 0
-14 13 -15 123 -9 120 6 122 6 132 -16 6 -13 15 -23 20 -23 6 0 20 -10 33 -23
18 -18 22 -32 20 -75 -1 -28 -5 -60 -10 -69 -6 -12 -5 -18 3 -18 7 0 5 -8 -6
-20 -18 -19 -17 -20 3 -20 30 0 28 -8 -13 -66 -19 -27 -35 -55 -35 -61 0 -19
86 -17 94 2 4 11 -3 15 -27 16 l-32 2 34 6 c30 5 36 12 52 56 10 28 18 75 18
107 l1 56 43 -5 c39 -4 40 -3 19 9 -12 8 -20 17 -17 20 3 3 -13 17 -35 32 -47
31 -52 49 -12 40 l27 -6 -25 21 c-14 11 -31 21 -37 21 -7 0 -19 15 -27 33 -8
17 -15 27 -15 21 -1 -6 -22 9 -47 35 l-46 46 6 55 c4 34 13 60 23 68 16 11 16
12 0 12 -9 0 -17 4 -17 9 0 5 -3 16 -6 25 -4 12 0 16 15 16 15 0 21 6 21 21 0
19 -1 19 -22 5 -26 -18 -80 -21 -109 -6 -32 18 -21 29 17 18 20 -5 43 -6 52
-2 10 4 22 6 29 5 6 -1 14 3 18 9 8 13 -25 26 -34 14 -7 -11 -81 -12 -74 -1 6
10 -5 9 -25 -4 -22 -14 -18 -59 4 -59 18 0 17 -10 -1 -34 -9 -12 -22 -17 -35
-13 -11 3 -20 0 -20 -5 0 -7 14 -8 35 -5 l35 6 -2 -45 c-1 -41 -3 -45 -22 -39
-69 20 -138 26 -196 17 -57 -8 -68 -7 -138 20 -64 25 -82 28 -109 20 -50 -15
-50 11 1 58 23 22 51 59 61 82 10 24 28 67 41 96 l23 52 -85 0 c-46 0 -84 -2
-84 -5 0 -3 9 -24 20 -46 17 -33 25 -39 42 -33 18 5 20 3 14 -17 -4 -13 -8
-36 -10 -51 -3 -33 -32 -68 -57 -68 -12 0 -23 16 -35 48 -25 65 -42 90 -82
117 -34 23 -34 23 -12 35 19 10 27 9 49 -7 21 -16 71 -91 84 -127 2 -5 9 -6
16 -2 10 6 9 11 -2 24 -8 10 -18 28 -22 42 -4 14 -21 40 -38 58 -29 30 -35 32
-97 32 -47 0 -76 -6 -105 -21z m22 -106 c16 -15 29 -21 31 -15 2 7 17 12 32
12 37 0 52 -27 54 -94 1 -39 -2 -51 -14 -51 -11 0 -16 14 -20 49 -6 61 -30 76
-30 18 0 -22 -6 -45 -13 -51 -11 -9 -16 -3 -25 27 -8 24 -26 50 -52 71 -22 17
-40 38 -40 46 0 25 49 17 77 -12z"/>
<path d="M9457 5243 c-3 -10 -6 -51 -7 -91 -1 -66 1 -74 19 -79 12 -3 21 -13
21 -23 0 -10 17 -35 38 -57 37 -40 37 -40 95 -33 66 7 70 0 27 -45 -28 -29
-29 -33 -18 -63 13 -34 22 -39 34 -20 4 6 0 16 -9 23 -21 15 -22 39 -2 31 9
-3 21 4 31 19 l15 24 35 -21 c41 -24 42 -30 9 -56 -17 -13 -23 -28 -22 -48 2
-29 26 -41 35 -16 2 6 -1 12 -7 12 -6 0 -11 7 -11 15 0 9 9 15 24 15 18 0 25
6 28 22 2 13 10 24 18 25 75 9 95 17 121 46 28 31 29 34 29 142 0 74 -4 115
-12 123 -10 10 -10 17 0 33 17 27 7 37 -15 17 -27 -23 -47 -33 -39 -20 5 8 0
12 -12 12 -11 0 -22 7 -26 15 -3 9 -18 15 -35 15 -16 0 -31 -6 -35 -15 -3 -8
-12 -15 -20 -15 -7 0 -16 7 -20 15 -3 8 -10 15 -16 15 -7 0 -7 -6 0 -21 9 -17
8 -23 -7 -35 -29 -21 -36 -17 -30 21 5 28 2 35 -10 35 -13 0 -14 -8 -9 -50 5
-38 3 -56 -10 -75 -9 -15 -16 -44 -16 -75 1 -53 -8 -61 -42 -35 -11 8 -30 15
-42 15 -12 0 -24 7 -28 15 -3 9 0 15 9 15 10 0 15 11 15 34 0 28 4 35 23 38
12 2 21 6 20 11 -2 4 -3 18 -3 32 0 16 -6 25 -15 25 -11 0 -14 -7 -9 -25 3
-14 2 -25 -4 -25 -11 0 -22 34 -22 73 0 15 -5 27 -11 27 -5 0 -9 -8 -8 -17 1
-10 1 -27 0 -38 -2 -19 -2 -19 -15 -2 -8 10 -11 28 -9 40 4 15 2 19 -5 12 -6
-5 -12 -23 -15 -40 -4 -27 -4 -26 -6 8 -1 38 -16 50 -24 20z"/>
<path d="M5277 5195 c-15 -32 -22 -57 -17 -60 6 -4 13 1 17 10 5 15 7 16 15 2
5 -9 14 -15 21 -13 6 1 10 1 7 -1 -3 -2 -4 -19 -2 -38 5 -43 -11 -65 -48 -65
-26 0 -27 1 -20 45 4 25 4 48 0 50 -7 4 -84 -144 -78 -151 3 -2 39 3 82 11 99
19 243 19 325 0 35 -9 65 -14 67 -12 5 5 -87 157 -95 157 -5 0 -7 -22 -5 -48
2 -44 0 -48 -22 -50 -25 -2 -46 22 -59 67 -5 18 -4 22 6 16 9 -6 11 -4 6 8 -4
11 -2 14 9 10 8 -3 14 1 14 11 0 9 4 16 10 16 6 0 9 -3 8 -7 -3 -8 5 -13 21
-13 5 0 -2 25 -17 55 l-27 55 -95 0 -96 0 -27 -55z"/>
<path d="M6050 5193 c0 -11 -61 -46 -83 -48 -13 -1 -17 3 -14 16 4 16 2 17
-15 8 -22 -12 -59 -69 -52 -80 2 -4 0 -10 -6 -14 -5 -3 -10 -19 -10 -36 0 -35
-22 -39 -43 -8 -9 12 -17 16 -21 10 -4 -6 7 -25 24 -42 37 -39 38 -58 4 -95
-16 -16 -22 -30 -15 -32 6 -2 11 -10 11 -17 0 -8 8 -20 18 -27 10 -7 23 -21
28 -31 9 -15 14 -13 44 20 19 20 26 31 16 23 -19 -15 -19 -14 -1 20 23 45 29
51 21 20 -5 -19 -5 -21 3 -9 7 11 19 15 36 12 29 -6 75 4 75 15 0 5 -13 7 -29
4 -47 -7 -68 11 -74 65 -6 46 -4 49 31 80 l36 32 -43 -6 -43 -6 15 29 c19 36
41 56 92 82 32 17 36 21 18 22 -13 0 -23 -3 -23 -7z"/>
<path d="M4815 5170 c-3 -5 -16 -10 -28 -11 -12 0 -16 -3 -9 -6 20 -8 14 -26
-8 -20 -11 3 -18 1 -14 -4 3 -5 15 -9 28 -9 39 0 59 -23 59 -67 0 -65 -17 -79
-53 -43 -14 14 -20 16 -20 6 0 -7 7 -19 15 -26 13 -11 13 -15 3 -21 -9 -6 -4
-9 13 -9 20 0 30 -8 39 -31 8 -17 13 -39 13 -48 0 -9 4 -22 10 -29 14 -18 2
-25 -22 -12 -12 6 -21 8 -21 4 0 -13 35 -33 58 -34 13 0 32 -5 43 -10 15 -9
19 -7 19 5 0 10 5 13 12 9 7 -5 9 -1 6 13 -4 15 -1 20 10 19 14 -2 59 32 50
38 -1 2 -14 10 -26 18 l-24 16 24 13 c24 13 38 28 38 43 0 5 -9 1 -20 -9 -17
-16 -20 -16 -20 -2 0 9 -5 19 -11 23 -8 4 -9 -1 -4 -16 6 -18 3 -21 -12 -18
-12 2 -19 14 -21 33 -2 17 -7 34 -12 39 -5 5 -4 19 0 32 7 16 6 24 -2 24 -7 0
-9 13 -5 37 5 26 3 33 -4 26 -8 -8 -21 -4 -46 13 -40 27 -49 29 -58 14z"/>
<path d="M7798 5119 c-5 -3 -29 -5 -53 -3 -38 3 -43 1 -38 -14 4 -9 12 -23 19
-29 7 -7 10 -21 7 -32 -8 -29 14 -61 42 -61 19 0 25 -5 25 -21 0 -19 1 -19 16
-4 10 9 25 14 35 12 13 -4 19 0 19 12 0 9 5 22 12 29 9 9 6 12 -15 12 -17 0
-27 5 -27 15 0 10 10 15 30 15 17 0 30 5 30 10 0 6 -13 10 -28 10 -19 0 -29 5
-29 15 0 17 28 20 43 5 7 -7 14 -3 22 14 l11 25 -55 -2 c-31 -1 -60 -5 -66 -8z"/>
<path d="M6840 5086 c0 -8 5 -18 10 -21 6 -4 7 -12 4 -18 -5 -8 -3 -8 7 1 18
17 49 15 49 -3 0 -9 -9 -15 -25 -15 -14 0 -25 -4 -25 -10 0 -5 11 -10 24 -10
13 0 26 -7 30 -15 6 -17 -29 -22 -39 -5 -3 6 -11 10 -16 10 -6 0 -3 -7 6 -16
9 -10 14 -26 12 -36 -4 -15 -2 -18 10 -14 9 4 26 0 38 -8 21 -14 23 -13 28 4
3 14 14 20 31 20 19 0 29 7 36 26 6 14 7 30 4 35 -3 6 1 21 10 34 22 34 21 37
-22 34 -21 -2 -43 0 -49 4 -6 4 -26 6 -45 5 -18 -1 -43 1 -55 6 -17 5 -23 4
-23 -8z"/>
<path d="M12356 5025 c-92 -38 -156 -109 -156 -174 0 -28 1 -29 30 -21 32 9
47 -1 33 -22 -4 -7 -8 -40 -8 -73 0 -49 -3 -60 -17 -63 -14 -3 -18 4 -19 25
-2 26 -2 25 -8 -6 -7 -40 -31 -55 -31 -19 0 13 4 30 9 38 6 8 7 18 4 24 -4 5
-9 1 -13 -9 -6 -18 -7 -18 -12 2 -5 17 -2 21 13 18 12 -2 19 2 19 11 0 8 -5
14 -11 14 -5 0 -8 4 -5 8 3 5 -15 9 -38 11 -34 1 -45 -2 -50 -16 -6 -14 -5
-16 5 -5 7 6 24 12 38 12 13 0 21 -3 17 -7 -4 -5 -15 -8 -24 -8 -9 0 -27 -7
-40 -16 -17 -13 -19 -18 -9 -22 8 -3 17 -17 19 -32 4 -19 2 -25 -8 -21 -20 8
-17 -11 2 -22 12 -7 13 -11 5 -17 -9 -5 -8 -11 4 -25 27 -29 9 -48 -54 -55
-70 -8 -84 -5 -94 18 -10 26 29 115 45 99 8 -8 6 -15 -6 -27 -15 -16 -20 -30
-17 -48 1 -5 -3 -6 -9 -2 -5 3 -10 1 -10 -4 0 -14 1 -14 37 4 32 16 52 47 34
53 -6 2 -11 12 -11 22 0 10 -5 22 -10 25 -8 5 -7 11 1 21 6 7 9 20 6 28 -3 8
1 20 10 28 14 11 13 13 -8 19 -13 3 -27 1 -31 -5 -5 -7 -8 -7 -8 2 0 6 -5 12
-11 12 -5 0 -8 -4 -5 -9 3 -5 -4 -12 -17 -15 -21 -6 -21 -7 -4 -20 15 -11 15
-15 3 -19 -8 -3 -19 0 -24 6 -10 12 -12 18 -12 37 0 6 -5 10 -10 10 -6 0 -8
-13 -5 -29 6 -34 -2 -42 -30 -31 -20 7 -20 7 1 20 15 9 19 20 16 41 -2 16 -8
29 -12 29 -12 0 -21 -30 -13 -42 3 -7 1 -8 -5 -4 -7 4 -12 18 -12 32 0 14 -6
24 -15 24 -8 0 -12 -6 -9 -14 7 -18 -49 -31 -73 -17 -15 9 -13 10 15 11 64 0
33 26 -75 60 -59 19 -118 44 -133 56 -18 16 -31 20 -41 13 -8 -5 -31 -14 -51
-19 -23 -7 -38 -17 -38 -26 0 -15 11 -14 56 3 6 2 24 -7 40 -20 l28 -24 -47
-21 c-50 -22 -56 -32 -32 -52 8 -7 15 -19 15 -26 0 -8 6 -15 13 -16 21 -2 31
-4 65 -12 l33 -8 -7 -61 c-4 -34 -14 -72 -22 -85 -8 -13 -12 -33 -9 -50 3 -15
-1 -51 -10 -79 -16 -49 -15 -54 1 -72 10 -11 37 -29 59 -40 39 -20 40 -21 17
-29 -34 -13 -15 -20 91 -33 161 -20 397 1 642 56 178 40 187 43 187 67 0 20 1
20 18 4 16 -13 25 -14 53 -5 19 6 41 13 49 15 9 4 -3 16 -35 36 l-50 32 60 18
c33 10 75 17 92 14 32 -5 33 -5 17 20 -18 27 -26 31 -18 10 7 -18 -44 -10 -68
11 -9 8 -22 12 -29 7 -9 -5 -10 -2 -5 12 6 16 4 16 -14 -3 -22 -24 -40 -30
-40 -13 0 6 7 10 16 10 12 0 15 6 10 24 -5 19 0 28 22 42 15 10 30 18 33 17 3
-1 4 20 1 48 -4 47 -3 49 20 49 38 0 128 -29 176 -56 31 -19 42 -31 42 -49 0
-30 32 -65 60 -65 24 0 65 -76 81 -150 8 -40 15 -50 30 -50 18 0 20 4 13 48
-4 26 -19 73 -34 105 -20 42 -27 69 -23 95 6 51 -13 74 -63 74 -21 0 -53 8
-70 19 -17 10 -33 17 -35 14 -3 -2 -3 11 -1 30 3 21 10 35 18 35 17 0 17 5 3
32 -9 17 -13 18 -20 7 -12 -20 -11 -37 2 -19 7 10 9 11 7 2 -5 -18 -23 -16
-23 2 0 26 -12 27 -23 2 -9 -20 -8 -25 9 -29 20 -5 24 -23 11 -45 -7 -10 -18
-9 -55 7 -25 11 -62 23 -82 27 -19 3 -35 11 -35 17 0 7 -4 7 -12 -1 -10 -10
-10 -15 2 -22 11 -7 12 -10 2 -10 -7 0 -20 -7 -29 -15 -21 -21 -43 -2 -43 36
0 26 -3 29 -25 25 -28 -5 -43 9 -19 18 8 3 12 10 9 16 -9 14 18 12 35 -2 12
-11 12 -10 2 3 -6 9 -10 18 -7 20 2 3 -12 3 -33 1 -35 -3 -36 -2 -18 12 11 9
24 16 30 16 6 0 6 4 -1 11 -7 7 -22 4 -51 -11 -39 -20 -41 -24 -62 -113 -13
-51 -24 -94 -26 -96 -2 -2 -11 2 -20 10 -16 13 -16 12 -6 -7 6 -12 8 -24 4
-28 -3 -4 6 -2 21 3 46 18 86 13 112 -13 48 -48 45 -114 -8 -146 -42 -26 -97
-26 -131 1 -14 11 -26 16 -26 11 0 -6 -10 -8 -22 -4 l-22 5 22 8 c26 10 29 46
7 88 -8 16 -11 32 -7 36 4 3 7 12 7 18 0 7 8 11 17 9 21 -3 13 30 -12 53 -17
15 -17 19 -3 52 8 20 13 47 10 60 -2 13 -1 23 3 23 4 0 11 11 14 24 5 20 21
29 100 56 51 17 101 39 110 49 15 16 13 19 -23 39 -53 30 -128 29 -205 -3z"/>
<path d="M10917 4970 c-8 -11 -16 -17 -19 -14 -10 9 -19 -48 -13 -77 4 -19 13
-29 25 -29 10 0 20 -7 23 -14 4 -10 1 -13 -9 -9 -19 7 -18 -11 3 -28 11 -10
14 -10 9 -1 -4 8 -1 12 9 12 11 0 15 -5 12 -15 -4 -8 -2 -17 3 -20 6 -4 10
-17 10 -30 0 -13 6 -30 13 -37 31 -33 76 -96 71 -101 -3 -2 9 -15 26 -27 30
-21 33 -22 48 -5 14 14 14 18 4 22 -43 16 -99 84 -116 141 -7 20 -4 22 24 22
67 0 134 59 121 107 -10 38 -34 50 -64 34 -21 -11 -29 -10 -57 4 -17 9 -37 14
-44 12 -9 -3 -11 4 -8 25 7 47 -43 67 -71 28z"/>
<path d="M5550 4909 c-14 -12 -26 -16 -28 -10 -2 6 -13 4 -29 -6 -25 -17 -26
-17 -18 7 l8 25 -22 -25 c-13 -14 -19 -18 -15 -10 6 12 5 13 -7 4 -8 -6 -32
-17 -54 -24 -22 -7 -63 -25 -91 -40 -48 -27 -52 -28 -68 -12 -16 16 -17 16
-10 -2 6 -15 4 -17 -7 -11 -12 8 -12 6 0 -8 17 -21 46 -22 100 -2 51 18 66 13
79 -28 l10 -32 1 33 c1 19 5 31 11 27 6 -3 7 1 4 9 -7 19 26 22 44 4 6 -6 26
-12 44 -14 18 -1 64 -7 102 -14 53 -9 70 -9 76 0 5 8 26 11 59 9 28 -2 51 -3
51 -2 0 8 -146 75 -178 81 -33 7 -37 11 -34 35 3 32 4 32 -28 6z"/>
<path d="M7273 4876 c-46 -21 -61 -57 -38 -92 15 -24 19 -25 27 -11 13 24 31
21 23 -3 -8 -25 27 -35 102 -27 40 4 59 11 69 26 8 11 21 18 29 15 11 -5 15 1
15 21 0 34 -18 67 -32 59 -5 -4 -14 -1 -19 7 -12 20 -136 23 -176 5z"/>
<path d="M9895 4860 c-8 -9 -15 -25 -15 -34 0 -13 -5 -17 -20 -13 -26 7 -80
-20 -80 -39 0 -8 4 -13 8 -10 5 3 7 -17 4 -44 -5 -54 3 -100 18 -100 6 0 10
16 10 36 0 22 4 33 10 29 7 -4 10 7 9 32 -2 21 1 44 5 51 9 14 46 16 46 2 0
-5 9 -10 19 -10 10 0 22 -7 25 -16 12 -32 26 -1 26 60 0 60 -2 64 -25 68 -15
3 -30 -1 -40 -12z"/>
<path d="M6780 4815 c0 -8 -4 -15 -10 -15 -5 0 -10 -14 -10 -31 0 -26 -3 -29
-20 -24 -11 3 -20 2 -20 -3 0 -5 9 -12 20 -15 12 -3 20 -14 20 -26 0 -12 2
-21 5 -21 9 0 45 40 45 50 0 13 41 12 123 -4 65 -12 96 -33 97 -63 0 -25 50
35 50 60 0 39 -33 54 -61 26 -23 -23 -49 -19 -49 8 -1 17 -1 17 -14 1 -11 -16
-16 -16 -65 -2 -41 13 -51 19 -46 33 4 12 -3 21 -20 29 -34 16 -45 15 -45 -3z"/>
<path d="M7136 4707 c5 -23 0 -34 -32 -67 -44 -45 -63 -49 -89 -20 -10 11 -29
20 -42 20 -20 0 -23 -5 -23 -35 0 -24 -6 -37 -20 -45 -12 -6 -20 -21 -20 -36
0 -17 7 -28 20 -31 16 -4 20 -14 20 -44 0 -22 5 -39 10 -39 10 0 7 -77 -4 -87
-3 -3 -22 3 -43 13 -29 14 -38 25 -38 44 0 17 -8 29 -27 38 -40 19 -48 85 -18
147 21 43 79 95 107 95 7 0 13 4 13 9 0 14 -53 -6 -78 -30 -45 -41 -74 -107
-73 -162 1 -29 2 -63 2 -77 1 -30 16 -50 36 -50 8 0 28 -9 43 -20 16 -11 42
-23 58 -26 17 -4 40 -15 51 -25 16 -15 25 -17 40 -9 13 6 22 7 26 0 3 -5 12
-7 19 -4 8 3 16 -4 20 -20 5 -19 0 -31 -19 -50 -31 -31 -31 -40 1 -65 24 -19
25 -22 10 -37 -12 -11 -14 -20 -6 -28 5 -7 7 -16 3 -19 -3 -4 127 -7 291 -7
l296 0 -6 28 c-3 15 -8 33 -10 41 -2 7 7 25 21 38 l25 25 -21 29 c-11 16 -25
29 -30 29 -5 0 -9 6 -9 14 0 19 40 27 77 17 27 -8 32 -6 43 14 7 13 29 30 49
39 20 9 54 27 76 39 l40 23 -1 83 c-1 47 -6 87 -13 94 -9 9 -10 4 -5 -20 10
-50 -3 -97 -29 -108 -14 -6 -22 -19 -22 -34 0 -14 -11 -32 -27 -44 -32 -24
-63 -16 -55 13 3 11 1 23 -4 26 -5 3 -2 15 6 27 8 12 15 33 15 48 0 15 7 29
15 33 8 3 15 14 15 24 0 11 -7 25 -15 32 -8 7 -15 28 -15 47 0 42 -21 52 -49
24 -12 -12 -29 -21 -39 -21 -26 0 -82 67 -82 98 0 26 0 26 -15 5 -14 -21 -21
-21 -125 -16 -80 4 -110 3 -110 -6 0 -6 -6 -11 -14 -11 -8 0 -16 -6 -19 -12
-3 -10 -7 -10 -20 1 -12 9 -17 10 -17 2 0 -7 -5 -9 -12 -5 -7 4 -8 3 -4 -4 4
-6 12 -9 19 -6 7 2 21 -2 32 -10 18 -13 16 -14 -25 -5 -44 10 -69 24 -59 33
11 11 69 16 69 6 0 -6 5 -8 10 -5 6 3 10 11 10 17 0 8 -26 9 -84 4 -83 -6 -85
-6 -105 22 l-21 27 6 -28z m346 -269 c8 -21 -2 -38 -21 -38 -15 0 -18 -8 -17
-37 1 -28 -3 -38 -16 -41 -11 -2 -18 3 -18 12 0 9 -6 15 -12 14 -8 -2 -14 9
-16 25 -3 21 -9 27 -28 27 -19 0 -24 -5 -24 -24 0 -14 -4 -28 -10 -31 -10 -6
-14 6 -11 38 2 11 -5 17 -18 17 -20 0 -31 17 -23 38 3 8 34 12 107 12 73 0
104 -4 107 -12z"/>
<path d="M6099 4715 c0 -3 -1 -24 -1 -47 -1 -37 2 -43 20 -46 12 -2 22 -10 22
-17 0 -17 39 -59 63 -68 27 -10 21 -30 -8 -23 -14 4 -25 2 -25 -4 0 -5 7 -10
15 -10 9 0 18 -7 21 -15 7 -17 34 -21 34 -5 0 6 -4 10 -10 10 -5 0 -10 5 -10
10 0 6 7 10 15 10 18 0 19 12 3 28 -9 9 -8 16 5 30 9 10 17 26 17 35 0 11 8
17 25 17 23 0 25 4 25 45 0 25 -4 45 -10 45 -5 0 -10 -7 -10 -15 0 -8 -7 -15
-15 -15 -8 0 -15 -4 -15 -10 0 -5 -22 -10 -50 -10 -51 0 -90 21 -90 47 0 12
-19 19 -21 8z"/>
<path d="M5253 4702 c-30 -5 -63 -48 -63 -84 0 -17 10 -39 25 -53 49 -50 135
-17 135 51 0 20 -4 44 -10 54 -11 21 -55 37 -87 32z"/>
<path d="M5485 4670 c-7 -21 -9 -22 -20 -7 -11 15 -14 15 -33 -6 -28 -30 -29
-78 -2 -102 14 -13 17 -22 10 -29 -16 -16 -12 -66 5 -66 8 0 15 5 15 10 0 6 5
10 10 10 6 0 10 -7 10 -15 0 -8 5 -15 10 -15 6 0 10 11 10 24 0 51 8 56 82 56
60 0 72 3 93 25 31 30 32 64 3 100 -19 25 -23 26 -34 11 -11 -15 -12 -15 -18
1 -7 17 -8 17 -18 -1 -10 -18 -11 -18 -23 4 l-13 23 -7 -22 c-6 -21 -7 -21
-20 -4 -13 17 -14 17 -21 -1 -7 -17 -8 -17 -19 5 l-13 22 -7 -23z"/>
<path d="M9157 4650 c-14 -16 -29 -40 -33 -52 -4 -13 -11 -26 -17 -30 -17 -10
-16 -36 0 -42 11 -5 14 -15 9 -36 -7 -36 19 -65 63 -68 l29 -2 -20 38 -21 37
21 47 c12 29 33 55 52 66 25 16 28 21 15 26 -28 11 -60 7 -84 -11 -26 -18 -23
-5 7 30 8 9 13 20 10 22 -3 3 -17 -8 -31 -25z"/>
<path d="M8799 4518 c-11 -21 -12 -21 -26 -3 -13 19 -14 19 -48 0 -20 -10 -34
-23 -32 -29 2 -5 33 -16 69 -22 36 -7 79 -19 96 -28 30 -16 85 -74 80 -85 -11
-24 -38 -101 -42 -123 -6 -25 -8 -27 -34 -17 -32 12 -126 108 -148 151 -30 57
-28 36 8 -140 9 -43 9 -54 -3 -65 -9 -6 -26 -28 -39 -48 -13 -20 -35 -44 -49
-52 -25 -15 -22 -16 59 -15 63 0 87 4 95 15 10 13 13 13 27 -1 10 -9 33 -16
57 -16 39 0 41 2 41 30 0 22 -4 28 -15 24 -11 -5 -15 1 -15 17 0 52 10 66 41
61 24 -4 29 -1 29 17 0 18 23 75 36 90 4 4 49 -50 49 -59 1 -28 72 -55 108
-40 18 7 13 9 -24 9 -25 1 -54 8 -65 16 -23 18 -13 19 37 3 30 -8 45 -8 66 1
21 9 28 9 34 0 5 -8 9 -2 12 17 2 16 3 7 1 -21 -2 -35 -1 -45 6 -35 26 40 -2
160 -37 160 -11 0 -14 6 -10 22 8 28 -8 47 -33 41 -19 -5 -25 5 -21 31 1 4 -3
14 -10 22 -8 10 -15 10 -29 2 -25 -16 -53 -3 -45 21 8 25 -25 38 -41 17 -18
-25 -44 -20 -44 8 0 32 -25 40 -42 14 -17 -26 -48 -18 -48 12 0 27 -36 26 -51
-2z"/>
<path d="M9900 4522 c0 -4 -17 -7 -39 -5 -30 1 -46 -5 -72 -28 -19 -16 -27
-28 -19 -27 12 2 15 -9 16 -48 1 -28 4 -56 8 -63 11 -18 -5 -13 -20 7 -7 9
-14 35 -14 57 -2 37 -2 38 -11 14 -5 -14 -21 -31 -34 -37 -20 -9 -25 -8 -30 8
-4 11 -11 20 -16 20 -5 0 -8 3 -6 8 3 10 -6 12 -74 12 -59 0 -61 -1 -55 -23
10 -40 -10 -84 -66 -149 -116 -135 -197 -182 -345 -196 -39 -4 -68 -12 -71
-19 -3 -10 38 -13 185 -13 l188 0 0 42 c0 36 3 42 28 51 31 10 101 1 92 -13
-3 -5 -1 -11 5 -15 5 -3 10 -19 10 -36 l0 -29 66 0 c36 0 75 5 86 11 14 8 23
8 31 0 15 -15 80 -14 75 1 -3 7 -15 15 -29 18 -21 5 -25 13 -29 57 -3 28 -13
60 -23 70 -13 15 -14 22 -4 33 9 10 9 11 -1 6 -25 -15 -42 14 -40 66 2 43 6
52 27 62 20 9 25 8 29 -4 6 -17 50 -60 77 -76 17 -10 18 -14 8 -35 -7 -13 -17
-36 -22 -50 -9 -24 -7 -26 10 -22 13 4 19 0 19 -12 0 -12 -6 -16 -20 -12 -11
3 -18 1 -14 -4 3 -5 11 -9 19 -9 7 0 15 -6 18 -14 3 -8 24 -20 46 -27 36 -11
40 -15 35 -36 -4 -12 -2 -23 3 -23 18 0 33 24 33 52 0 28 -13 37 -26 17 -15
-25 -98 19 -87 47 3 8 -1 22 -10 32 -26 30 9 83 66 96 24 6 30 3 34 -14 13
-51 23 -10 23 98 -1 99 -3 120 -19 140 -19 22 -41 30 -41 14z"/>
<path d="M8430 4500 c-23 -23 -29 -90 -7 -82 10 3 -4 -52 -15 -56 -4 -2 -8
-19 -8 -37 0 -33 0 -33 50 -33 28 -1 50 4 50 9 0 6 8 5 21 -2 16 -8 20 -18 17
-39 -3 -16 0 -26 5 -23 5 3 7 20 4 38 -3 18 -1 37 5 43 15 15 2 29 -35 36 -30
6 -34 10 -29 31 4 21 10 25 41 25 l36 0 0 55 c0 37 -4 55 -12 55 -9 0 -11 -13
-7 -44 6 -39 4 -44 -17 -49 -30 -8 -37 -1 -40 43 -5 52 -26 63 -59 30z"/>
<path d="M6150 4471 c0 -5 9 -13 20 -16 30 -10 14 -25 -23 -22 -22 1 -32 -2
-32 -13 0 -10 -17 -17 -55 -23 -30 -4 -59 -12 -64 -17 -6 -6 -25 -10 -44 -10
-25 0 -41 8 -60 30 -31 35 -47 38 -62 9 -9 -15 -8 -24 2 -36 7 -9 13 -26 13
-37 0 -14 5 -19 15 -16 25 7 103 2 140 -10 39 -13 90 0 90 23 0 15 86 90 113
97 17 5 17 6 -3 28 -21 22 -50 30 -50 13z"/>
<path d="M4975 4395 c-37 -40 -102 -58 -117 -31 -9 16 -61 22 -92 10 -19 -7
-22 -67 -3 -81 23 -18 60 -22 86 -9 14 8 44 18 66 23 22 6 47 13 56 17 10 5
20 -1 29 -19 16 -30 21 -31 38 -4 11 18 11 23 -5 34 -17 13 -17 14 2 28 17 13
18 18 7 41 -15 34 -30 32 -67 -9z"/>
<path d="M12970 4260 c0 -29 32 -69 65 -80 61 -20 135 19 135 72 0 16 -11 18
-100 18 -63 0 -100 -4 -100 -10z"/>
<path d="M5016 4221 c-12 -13 -14 -21 -6 -26 8 -5 8 -11 -1 -21 -9 -11 -8 -14
4 -14 10 0 14 -6 11 -15 -4 -10 0 -15 11 -15 9 0 13 -4 10 -10 -3 -5 -1 -10 4
-10 6 0 11 -7 11 -15 0 -8 5 -14 11 -12 8 1 28 -21 35 -41 0 -1 15 5 31 13 28
14 36 14 78 0 39 -14 84 -16 283 -12 265 6 262 5 262 23 0 8 6 11 14 8 21 -8
9 36 -16 59 -11 11 -23 30 -28 43 -14 36 -25 29 -50 -31 -12 -30 -27 -53 -33
-52 -6 1 -23 27 -37 57 l-27 55 -18 -55 c-21 -66 -32 -81 -45 -60 -5 8 -10 23
-10 32 0 9 -11 28 -25 42 l-25 25 -26 -45 c-34 -58 -48 -54 -75 21 -11 30 -11
30 -20 7 -5 -13 -15 -32 -22 -43 -14 -19 -15 -18 -41 6 -14 13 -26 27 -25 30
1 3 -2 16 -5 28 -6 20 -10 16 -33 -27 l-25 -50 -15 27 c-7 15 -18 27 -23 27
-5 0 -10 10 -12 23 -4 20 -5 20 -24 -11 -41 -71 -41 -71 -55 -9 -7 32 -16 60
-19 62 -4 3 -15 -4 -24 -14z"/>
<path d="M8400 4140 l0 -100 50 0 51 0 -4 46 c-2 25 0 47 4 50 4 2 21 21 37
42 26 32 28 38 12 38 -10 0 -16 -4 -14 -8 3 -4 -1 -16 -8 -27 -15 -25 -93 -40
-111 -22 -9 10 -6 12 13 10 51 -4 60 0 60 30 0 31 -14 41 -61 41 l-29 0 0
-100z"/>
<path d="M7928 4211 c-15 -12 -33 -18 -45 -15 -23 6 -63 -11 -63 -27 0 -5 -11
-22 -24 -36 -22 -24 -24 -29 -12 -57 12 -30 14 -31 84 -34 40 -2 71 1 70 5 -1
4 4 28 11 53 10 35 10 49 1 64 -11 17 -9 22 8 37 12 9 18 19 15 23 -10 10 -19
7 -45 -13z"/>
<path d="M12707 4193 c-11 -10 -8 -63 3 -63 6 0 10 -47 10 -120 0 -89 3 -122
13 -126 7 -2 81 -3 165 -2 l152 3 -80 120 c-56 84 -80 129 -80 151 0 30 -2 31
-52 38 -69 8 -123 8 -131 -1z"/>
<path d="M6768 4165 c-9 -21 -8 -28 8 -46 10 -11 26 -18 36 -16 10 3 16 1 12
-4 -3 -5 -1 -9 4 -9 6 0 8 -9 5 -20 -3 -11 -9 -17 -14 -14 -5 3 -7 9 -4 14 3
5 1 11 -5 15 -5 3 -10 0 -10 -8 0 -30 27 -38 114 -35 l86 3 -17 31 c-10 17
-23 38 -28 47 -6 10 -31 20 -59 23 -27 4 -57 15 -68 26 -25 25 -46 23 -60 -7z"/>
<path d="M11298 4120 c-3 -16 0 -30 5 -30 17 0 1 -17 -73 -80 -41 -35 -84 -72
-95 -84 l-20 -20 21 17 c25 21 41 22 24 2 -10 -12 -9 -15 6 -15 14 0 15 -3 6
-9 -10 -6 -10 -10 1 -20 10 -8 56 -11 148 -9 l132 3 32 94 c17 51 38 99 48
106 9 7 17 24 17 37 0 33 -18 38 -146 38 l-102 0 -4 -30z"/>
<path d="M15462 3543 c-40 -19 -74 -61 -103 -128 -17 -39 -21 -61 -17 -115 11
-150 131 -270 269 -270 44 0 92 19 86 34 -3 6 -38 94 -80 196 -41 102 -80 211
-87 243 -6 31 -17 57 -23 57 -7 0 -27 -8 -45 -17z"/>
<path d="M17095 10008 c15 -229 15 -1024 0 -1173 -8 -77 -15 -150 -15 -163 0
-38 39 -45 160 -27 58 8 132 15 165 15 33 1 80 5 105 11 58 13 389 29 415 19
11 -4 32 -10 48 -14 l27 -6 0 725 0 725 -456 0 -457 0 8 -112z m581 -503 c27
-13 60 -34 74 -45 l25 -21 -32 6 c-35 7 -56 -12 -29 -27 9 -5 14 -14 10 -19
-3 -5 0 -16 6 -24 6 -8 9 -19 5 -25 -3 -5 1 -10 9 -10 9 0 16 6 16 14 0 9 7
12 20 9 16 -4 19 -2 14 11 -3 9 -1 16 5 16 6 0 11 11 11 24 0 13 7 26 15 30 8
3 15 13 15 21 0 9 5 13 10 10 6 -3 10 -2 10 4 0 6 7 8 15 5 10 -4 15 0 16 12
1 11 5 -6 9 -36 12 -85 12 -460 0 -460 -5 0 -10 10 -11 23 -1 22 -1 21 -8 -2
-6 -21 -8 -17 -20 27 -8 28 -18 49 -23 46 -4 -3 -8 3 -9 13 0 16 -1 16 -9 -2
-8 -19 -9 -19 -9 3 -1 23 -20 32 -22 10 0 -7 -4 -4 -9 7 -8 19 -9 19 -9 -3 -1
-13 -5 -21 -11 -17 -5 3 -7 13 -4 23 4 12 3 14 -4 4 -5 -8 -18 -11 -34 -7 -16
4 -29 2 -34 -6 -5 -9 -2 -10 9 -6 24 9 21 0 -4 -13 -17 -10 -20 -9 -19 7 5 48
-1 58 -16 24 -8 -19 -16 -32 -19 -30 -10 11 -33 229 -30 291 2 42 15 138 19
138 1 0 24 -11 52 -25z"/>
<path d="M562 6165 c-19 -198 -39 -240 -160 -326 -68 -49 -87 -95 -86 -214 1
-79 5 -109 22 -145 11 -25 42 -101 68 -170 26 -69 50 -129 54 -135 5 -5 11
-32 15 -60 4 -27 20 -84 37 -125 33 -82 32 -75 63 -610 16 -272 16 -275 41
-297 53 -48 79 -23 94 92 10 80 31 146 44 142 10 -3 24 -44 40 -117 3 -14 22
-42 43 -64 35 -35 41 -38 81 -33 103 11 125 61 124 275 -1 85 3 175 8 200 16
86 -29 142 -113 142 -24 0 -52 7 -63 15 -10 8 -22 15 -25 15 -13 0 -21 -37
-29 -141 -6 -81 -14 -120 -33 -163 -14 -31 -30 -56 -36 -56 -11 0 -29 17 -58
53 -10 13 -33 34 -51 47 -21 15 -36 38 -43 63 -13 50 -3 311 19 482 24 186 24
803 0 955 -9 58 -20 139 -24 180 -13 152 -18 151 -32 -5z"/>
<path d="M16971 5782 c-16 -30 -14 -97 5 -140 8 -20 29 -73 45 -117 16 -44 49
-109 73 -145 37 -57 44 -75 50 -140 9 -93 40 -230 66 -287 22 -50 50 -57 75
-19 23 34 62 199 70 294 7 73 12 90 46 142 54 84 68 113 105 218 40 114 35
146 -24 160 -104 25 -231 42 -359 48 -135 6 -142 5 -152 -14z"/>
<path d="M2611 4299 c-17 -17 -31 -34 -31 -39 0 -5 -3 -15 -6 -23 -3 -9 7 -22
30 -35 48 -28 65 -29 112 -4 l42 21 -16 46 c-23 72 -79 86 -131 34z"/>
<path d="M2482 3943 c-21 -8 -42 -59 -42 -101 0 -21 -3 -41 -6 -45 -3 -3 -23
1 -45 8 -35 13 -54 6 -29 -10 18 -11 10 -22 -22 -30 l-33 -7 28 -11 c15 -6 27
-13 27 -16 -1 -19 -41 -49 -73 -55 -20 -4 -38 -11 -38 -16 -1 -6 -2 -14 -3
-19 0 -5 -4 -13 -8 -17 -5 -4 -8 -29 -8 -55 0 -42 5 -52 40 -89 25 -26 42 -54
46 -78 4 -20 11 -43 16 -49 6 -7 7 -20 4 -30 -6 -14 -14 -10 -49 25 -24 23
-46 42 -50 42 -4 0 -7 -31 -7 -69 l0 -69 50 -7 c36 -5 55 -3 67 7 15 11 16 11
10 -5 -22 -60 -14 -119 18 -126 14 -2 16 1 11 15 -15 37 -15 83 -2 108 21 42
71 84 113 95 98 27 246 1 304 -55 30 -28 49 -118 30 -137 -22 -22 -8 -27 84
-27 83 0 96 2 105 19 5 11 7 28 4 38 -5 15 -4 15 5 3 8 -12 14 -6 30 30 10 25
22 64 26 87 4 24 10 45 15 48 11 7 -1 56 -14 52 -6 -2 -9 -20 -8 -41 3 -30 1
-36 -10 -30 -10 6 -10 4 1 -9 7 -9 12 -17 10 -18 -34 -7 -38 -5 -44 20 -3 14
-8 33 -11 42 -3 12 8 22 41 35 44 19 45 19 45 67 0 27 -4 46 -9 42 -18 -10
-22 15 -7 37 20 29 21 114 1 162 -24 56 -100 85 -152 57 -30 -15 -43 -14 -43
5 0 35 -35 86 -79 117 -42 29 -54 32 -141 35 -65 3 -100 9 -112 19 -9 8 -23
13 -30 11 -8 -3 0 -11 18 -21 21 -11 42 -37 63 -78 17 -34 30 -63 28 -65 -2
-2 -45 2 -95 8 -84 10 -93 13 -98 35 -9 34 3 72 33 99 25 23 23 29 -5 17z
m292 -238 c27 -25 33 -54 16 -85 -8 -14 -4 -25 15 -48 27 -32 33 -79 13 -103
-7 -9 -26 -23 -41 -33 -25 -15 -29 -15 -43 -1 -9 8 -25 20 -37 27 l-22 11 20
-24 20 -24 -26 23 c-14 12 -32 22 -40 22 -8 0 -3 6 11 13 23 12 70 71 70 88 0
17 -19 9 -22 -8 -3 -16 -19 -18 -151 -19 -134 0 -147 1 -147 17 0 11 -7 17
-19 16 -19 -1 -19 -2 2 -39 11 -21 28 -44 36 -52 21 -18 77 -36 111 -36 28 0
91 -36 97 -56 7 -21 -120 -16 -189 7 -79 28 -105 44 -124 81 -17 33 -11 62 17
94 15 16 18 31 15 60 -10 82 52 112 112 54 45 -43 95 -41 153 5 56 44 112 48
153 10z"/>
<path d="M326 3381 c-9 -10 -35 -21 -57 -25 -27 -4 -49 -16 -64 -34 -13 -15
-64 -56 -114 -92 l-90 -65 -1 -132 0 -132 33 18 c17 10 62 29 100 41 37 12 73
28 81 35 25 26 83 43 124 38 40 -5 41 -5 52 33 20 64 21 247 3 294 -18 44 -40
51 -67 21z"/>
<path d="M2681 2791 c-49 -13 -66 -22 -72 -39 -5 -12 -6 -28 -4 -35 3 -7 -12
-19 -35 -29 -43 -18 -52 -37 -20 -45 11 -3 20 -9 20 -14 0 -5 10 -9 23 -9 17
0 19 2 7 10 -11 7 -9 11 13 19 34 13 174 15 181 2 3 -4 20 -12 38 -16 l33 -8
-40 -7 -40 -7 43 -2 c27 -1 42 3 42 12 1 6 10 1 21 -12 11 -13 17 -31 15 -38
-4 -11 0 -13 14 -8 12 4 20 2 20 -5 0 -7 9 -23 20 -37 11 -14 20 -20 20 -14 0
7 5 9 10 6 6 -4 10 8 10 29 0 38 13 45 43 22 36 -27 10 -86 -38 -86 -30 0 -55
-10 -55 -21 0 -5 36 -9 80 -9 l81 0 -3 35 c-1 21 -7 35 -15 35 -7 0 -13 9 -13
19 0 11 -11 32 -24 48 -12 15 -28 42 -33 58 -6 17 -15 29 -22 28 -6 -2 -20 11
-33 27 -61 83 -176 119 -287 91z"/>
<path d="M2570 2591 c-5 -11 -10 -27 -10 -36 0 -12 -6 -15 -20 -10 -12 4 -20
2 -20 -5 0 -19 60 -36 172 -49 88 -11 111 -10 134 1 39 19 41 36 4 30 -26 -4
-30 -1 -30 18 0 12 5 30 10 41 7 12 7 19 1 19 -14 0 -31 -34 -31 -59 0 -25 -9
-26 -56 -6 -20 8 -59 16 -88 17 -51 3 -53 4 -50 31 4 32 -1 35 -16 8z"/>
<path d="M16715 1555 c-4 -33 -5 -78 -3 -100 l3 -40 83 -3 c68 -2 82 0 82 13
0 16 -19 19 -82 16 -29 -2 -37 2 -43 18 -10 33 3 44 50 38 49 -5 71 4 62 26
-4 11 -16 13 -49 10 -32 -4 -47 -1 -57 11 -24 28 4 48 63 44 40 -2 51 0 51 12
0 12 -15 15 -77 15 l-77 0 -6 -60z"/>
<path d="M16960 1515 l0 -105 80 0 c73 0 80 2 80 20 0 18 -7 20 -60 20 -57 0
-60 1 -60 25 0 24 3 25 55 25 48 0 55 2 55 20 0 18 -7 20 -55 20 -48 0 -55 3
-55 20 0 16 8 19 57 22 46 2 59 7 61 21 3 15 -6 17 -77 17 l-81 0 0 -105z"/>
<path d="M10542 1358 c-20 -10 -47 -18 -60 -18 -24 0 -24 0 -20 -98 4 -116 19
-150 50 -110 10 13 39 61 64 108 26 47 50 87 55 88 5 2 9 12 9 22 0 26 -54 31
-98 8z"/>
<path d="M2015 1360 c-11 -4 -70 -6 -131 -4 -84 3 -114 1 -122 -9 -11 -13 -51
-14 -96 -3 -16 4 -32 -1 -47 -13 -22 -17 -25 -18 -53 -2 -23 13 -40 15 -66 9
-19 -5 -50 -9 -67 -9 -18 -1 -33 -5 -33 -11 0 -5 -5 -6 -10 -3 -6 4 -16 2 -23
-3 -8 -7 -24 -4 -51 9 -50 24 -76 24 -76 2 0 -10 -11 -23 -25 -30 -20 -9 -25
-8 -25 2 0 25 -30 36 -103 39 -40 2 -79 6 -85 10 -7 4 -12 2 -12 -3 0 -6 -4
-11 -10 -11 -5 0 -10 8 -10 18 0 13 -2 14 -9 3 -6 -9 -11 -10 -15 -2 -5 7 -13
7 -26 -2 -16 -9 -24 -9 -39 0 -23 14 -317 15 -303 1 5 -5 81 -22 168 -38 345
-64 389 -72 397 -80 4 -4 1 -13 -8 -20 -25 -20 -17 -32 10 -14 14 9 34 14 45
11 11 -3 23 -1 26 5 6 10 78 2 102 -11 11 -6 10 -10 -2 -20 -9 -8 -16 -18 -16
-24 0 -7 4 -7 12 1 21 21 47 14 54 -15 10 -47 12 -49 13 -13 1 19 5 41 10 49
14 22 31 3 24 -29 -7 -36 4 -39 17 -5 11 30 30 33 37 5 6 -24 19 -26 30 -5 7
12 14 10 41 -14 32 -30 56 -26 26 3 -14 15 -14 16 6 16 14 0 26 -10 35 -32 11
-25 14 -28 15 -12 0 33 11 35 32 9 11 -14 25 -25 31 -24 8 0 8 2 0 6 -23 9
-15 35 10 31 14 -2 22 -10 22 -22 0 -28 21 -31 29 -4 6 23 6 23 22 3 11 -14
18 -16 21 -7 7 18 40 15 52 -5 9 -15 12 -16 20 -4 8 13 26 12 128 -7 155 -28
273 -38 273 -24 0 17 62 2 83 -19 10 -11 16 -20 15 -20 -2 -1 -68 -7 -148 -14
l-145 -12 105 -2 c157 -4 260 -15 410 -45 227 -46 437 -85 608 -113 105 -17
158 -30 148 -35 -8 -5 -655 -9 -1438 -9 -1210 -1 -1538 -5 -1448 -20 8 -1 758
-3 1666 -3 1383 -1 1654 -3 1667 -15 14 -11 23 -11 46 -1 17 6 34 9 39 6 5 -3
16 2 23 11 9 10 9 14 2 10 -21 -13 -33 28 -33 107 l0 76 -167 0 c-188 0 -396
10 -388 19 3 3 52 10 108 16 l102 10 3 86 3 85 -153 32 c-84 17 -220 43 -303
57 -82 14 -241 41 -353 60 -211 36 -300 43 -319 24 -9 -9 -33 -7 -95 5 -84 17
-246 20 -283 6z"/>
<path d="M295 990 c-22 -4 -26 -7 -13 -12 18 -8 18 -69 -2 -93 -17 -21 -92
-35 -189 -35 l-91 0 0 -85 0 -85 60 0 c33 0 63 0 66 1 4 0 10 -4 14 -11 7 -11
157 -17 167 -6 3 3 7 27 9 53 4 47 22 73 51 73 10 0 13 24 13 99 l0 99 -27 4
c-16 2 -41 1 -58 -2z"/>
<path d="M16880 628 c-36 -5 -148 -13 -250 -17 -102 -4 -167 -9 -145 -10 22
-1 58 -6 80 -10 l40 -9 -50 -2 -50 -3 55 -7 c72 -10 382 -12 395 -2 22 16 35
40 29 56 -7 17 -9 18 -104 4z"/>
<path d="M371 571 c17 -11 1946 -17 1957 -7 3 3 -260 6 -584 6 -324 0 -769 3
-989 6 -280 4 -395 2 -384 -5z"/>
<path d="M6522 464 c-16 -11 -21 -22 -17 -35 5 -16 1 -19 -27 -19 -37 0 -78
-24 -78 -45 0 -33 192 -56 267 -32 51 16 269 17 1448 3 627 -8 1517 6 1560 23
40 17 23 26 -80 41 -121 18 -2546 4 -2701 -16 -156 -20 -324 -1 -324 36 0 5 4
20 10 34 8 23 7 26 -13 26 -12 0 -33 -7 -45 -16z"/>
<path d="M17900 397 c-41 -4 -125 -6 -186 -4 -117 4 -144 -2 -144 -33 0 -32
29 -39 110 -24 41 8 130 14 198 15 l122 1 0 28 c0 15 -5 26 -12 26 -7 0 -47
-4 -88 -9z"/>
<path d="M3015 168 c-269 -4 -647 -11 -840 -16 -192 -5 -761 -8 -1263 -8
l-912 1 0 -72 0 -73 5074 0 5074 0 7 46 c5 37 3 50 -11 65 -18 20 -36 20
-1364 17 -955 -2 -1477 1 -1800 10 -250 8 -912 16 -1470 18 -558 2 -1091 8
-1185 14 -177 11 -481 10 -1310 -2z"/>
</g>
</svg>
